<?xml version="1.0" encoding="utf-8"?>
<!-- Generator: Adobe Illustrator 16.0.0, SVG Export Plug-In . SVG Version: 6.00 Build 0)  -->
<!DOCTYPE svg PUBLIC "-//W3C//DTD SVG 1.1//EN" "http://www.w3.org/Graphics/SVG/1.1/DTD/svg11.dtd">
<svg version="1.1" id="Layer_1" xmlns="http://www.w3.org/2000/svg" xmlns:xlink="http://www.w3.org/1999/xlink" x="0px" y="0px"
	 width="240.728px" height="64.194px" viewBox="30.451 7.686 240.728 64.194" enable-background="new 30.451 7.686 240.728 64.194"
	 xml:space="preserve">
<path fill="#33CCFF" d="M151.01,19.232c-11.193,0-20.266,9.074-20.266,20.264c0,11.193,9.073,20.268,20.266,20.268
	c11.191,0,20.262-9.074,20.262-20.268C171.271,28.307,162.201,19.232,151.01,19.232z"/>
<circle fill="#FF9900" cx="239.998" cy="39.498" r="20.5"/>
<circle fill="#66CCCC" cx="62.687" cy="39.496" r="20.189"/>
<g>
	<path fill="#FFFFFF" d="M70.339,38.773l-2.025,2.027l-8.855-8.854l2.025-2.027L70.339,38.773z M67.382,41.734l-2.029,2.027
		L56.5,34.906l2.027-2.027L67.382,41.734z M68.734,48.65l3.453-3.449l0.891,4.348L68.734,48.65z M63.224,47.514l7.826-7.826
		l0.875,4.25l-4.453,4.455L63.224,47.514z M53.542,37.863l2.027-2.027l8.854,8.854l-2.027,2.031L53.542,37.863z M53.022,29.49
		c2.04-2.037,5.256-2.166,7.442-0.381l-7.823,7.816C50.862,34.744,50.99,31.523,53.022,29.49z"/>
</g>
<path fill="#FFFFFF" d="M156.111,53.883h-7.992c-0.484,0-0.875-0.391-0.875-0.875c0-0.48,0.391-0.873,0.875-0.873h7.992
	c0.482,0,0.877,0.393,0.877,0.873C156.988,53.492,156.596,53.883,156.111,53.883z M157.201,28.686v6.93
	c0,1.914-0.516,3.289-1.014,4.619c-0.59,1.564-1.195,2.725-0.918,5.133c0.068,0.584,0.699,4.035,0.9,4.947
	c0.055,0.248,0.119,0.818-0.697,0.818s-6.945,0-6.945,0s-0.871,0.066-0.621-1.084c0.109-0.508,0.326-2.119,0.436-3.205
	c0.375-3.811-1.035-5.029-2.355-6.354c-1.322-1.32-3.059-3.508-3.059-3.508l-0.016-0.016c-0.055-0.053-0.096-0.115-0.131-0.182
	c-0.162-0.174-0.264-0.408-0.264-0.666c0-0.543,0.439-0.98,0.982-0.98c0.297,0,0.561,0.131,0.742,0.338
	c0.029,0.021,0.059,0.045,0.088,0.072l1.609,1.611l0.047,0.041c0.037,0.025,0.229,0.15,0.467,0.15c0.213,0,0.707-0.107,0.707-1.07
	c0-1.07,0.023-9.412,0.023-9.512c0-0.018,0.004-0.033,0.008-0.051c0-0.01-0.004-0.02-0.004-0.025c0-0.391,0.316-0.705,0.703-0.705
	c0.389,0,0.705,0.316,0.705,0.705c0,0.021-0.004,0.045-0.006,0.064l0.002,0.012v5.273c0.039,0.424,0.281,0.68,0.73,0.68
	c0.479,0,0.695-0.324,0.732-0.748v-6.857c0-0.051,0.01-0.098,0.023-0.145c0.062-0.322,0.346-0.564,0.686-0.564
	c0.385,0,0.699,0.312,0.699,0.699c0,0.008-0.004,0.014-0.004,0.021v6.883c0.018,0.465,0.242,0.713,0.699,0.713
	c0.473,0,0.703-0.203,0.764-0.693l0.004-5.172c0-0.004,0-0.01,0-0.01c0-0.012-0.004-0.023-0.004-0.041
	c0-0.389,0.314-0.703,0.705-0.703c0.387,0,0.701,0.314,0.701,0.703v5.137c0.02,0.482,0.254,0.779,0.738,0.779
	c0.52,0,0.719-0.369,0.729-0.859v-3.182c0-0.006,0.002-0.01,0.002-0.016c0-0.014-0.004-0.023-0.004-0.037
	c0-0.387,0.316-0.699,0.703-0.699c0.389,0,0.705,0.312,0.705,0.699c0,0.014-0.006,0.023-0.006,0.033
	C157.199,28.672,157.201,28.678,157.201,28.686z"/>
<g>
	<path fill="#FFFFFF" d="M249.4,37.996c-1.158,0.654-1.654,2.176-1.102,3.383c0.553,1.201-0.066,2.061-1.371,1.92l2.398,5.826
		c0.418,0.973-0.045,1.449-1.029,1.057l-1.195-0.479c-0.986-0.395-2.111,0.09-2.504,1.072l-0.48,1.197
		c-0.391,0.982-1.053,0.992-1.473,0.02l-2.471-6.002c-0.059-0.129-0.115-0.275-0.178-0.428c-0.061,0.152-0.119,0.299-0.178,0.428
		l-2.654,5.975c-0.418,0.973-1.08,0.965-1.473-0.02l-0.48-1.197c-0.391-0.982-1.518-1.467-2.502-1.074l-1.195,0.48
		c-0.984,0.393-1.447-0.082-1.029-1.055l2.576-5.799c-1.301,0.137-1.916-0.721-1.367-1.922c0.553-1.205,0.057-2.729-1.1-3.381
		c-1.158-0.65-1.158-1.719,0-2.373c1.156-0.65,1.652-2.172,1.1-3.381c-0.553-1.207,0.072-2.072,1.393-1.918
		c1.322,0.152,2.615-0.787,2.875-2.09c0.264-1.301,1.279-1.633,2.258-0.732c0.977,0.9,2.578,0.9,3.555,0
		c0.98-0.9,1.994-0.57,2.258,0.732c0.262,1.305,1.555,2.242,2.875,2.09c1.32-0.154,1.947,0.709,1.395,1.918
		c-0.555,1.209-0.059,2.73,1.102,3.381C250.559,36.279,250.559,37.346,249.4,37.996z"/>
	<path fill="#FF9900" d="M239.998,43.084c3.463,0,6.271-2.809,6.271-6.271s-2.809-6.271-6.271-6.271
		c-3.465,0-6.271,2.809-6.271,6.271C233.727,40.273,236.533,43.084,239.998,43.084z M235.928,35.564
		c0.047-0.145,0.215-0.477,0.77-0.477l1.881-0.004c0.045,0,0.133-0.062,0.148-0.104l0.584-1.791
		c0.172-0.527,0.537-0.584,0.688-0.584s0.518,0.057,0.689,0.584l0.584,1.791c0.016,0.041,0.104,0.104,0.146,0.104l1.883,0.004
		c0.557,0,0.723,0.332,0.77,0.477c0.047,0.141,0.104,0.506-0.344,0.832l-1.521,1.109c-0.035,0.027-0.066,0.131-0.057,0.174
		l0.578,1.791c0.119,0.363,0.025,0.602-0.074,0.738c-0.117,0.166-0.307,0.262-0.52,0.262c-0.17,0-0.346-0.064-0.52-0.191
		l-1.525-1.104c-0.01-0.006-0.043-0.02-0.09-0.02s-0.082,0.014-0.09,0.02l-1.525,1.104c-0.176,0.127-0.35,0.191-0.518,0.191
		c-0.211,0-0.4-0.096-0.523-0.262c-0.098-0.137-0.189-0.373-0.07-0.738l0.576-1.791c0.016-0.043-0.021-0.146-0.055-0.174
		l-1.521-1.109C235.82,36.07,235.881,35.705,235.928,35.564z"/>
</g>
<path fill="#6699CC" d="M199.562,43.463h-8.357c-0.73,0-1.322-0.592-1.322-1.322s0.592-1.321,1.322-1.321h8.357
	c0.73,0,1.322,0.591,1.322,1.321S200.293,43.463,199.562,43.463z M199.562,38.177h-8.357c-0.73,0-1.322-0.593-1.322-1.322
	s0.592-1.321,1.322-1.321h8.357c0.73,0,1.322,0.592,1.322,1.321S200.293,38.177,199.562,38.177z"/>
<path fill="#6699CC" d="M110.883,40.76l-2.811,0.001v2.81c0.001,0.802-0.459,1.338-1.262,1.338c-0.802,0-1.262-0.535-1.262-1.338
	V40.76l-2.81,0.001c-0.803-0.001-1.337-0.459-1.339-1.264c0-0.802,0.535-1.261,1.338-1.261h2.811v-2.811
	c0.001-0.804,0.459-1.338,1.263-1.338c0.803,0,1.262,0.534,1.261,1.339v2.81l2.811,0.001c0.804-0.001,1.339,0.458,1.339,1.26
	C112.222,40.302,111.687,40.76,110.883,40.76z"/>
</svg>
