<?xml version="1.0" encoding="utf-8"?>
<!-- Generator: Adobe Illustrator 16.0.0, SVG Export Plug-In . SVG Version: 6.00 Build 0)  -->
<!DOCTYPE svg PUBLIC "-//W3C//DTD SVG 1.1//EN" "http://www.w3.org/Graphics/SVG/1.1/DTD/svg11.dtd">
<svg version="1.1" id="Layer_1" xmlns="http://www.w3.org/2000/svg" xmlns:xlink="http://www.w3.org/1999/xlink" x="0px" y="0px"
	 width="285px" height="285px" viewBox="0 0 285 285" enable-background="new 0 0 285 285" xml:space="preserve">
<g opacity="0.8">
	<path fill="#CCFFFF" d="M285.236,244.75c0,22-18,40-40,40h-205c-22,0-40-18-40-40v-205c0-22,18-40,40-40h205c22,0,40,18,40,40
		V244.75z"/>
</g>
<g>
	<path fill="#FFFFFF" d="M141.094,72.598c-29.394,0-53.221,23.832-53.221,53.218c0,29.396,23.827,53.23,53.221,53.23
		c29.393,0,53.221-23.834,53.221-53.23C194.314,96.43,170.484,72.598,141.094,72.598z"/>
	<path fill="#50B748" d="M141.094,72.598c-29.394,0-53.221,23.832-53.221,53.218c0,29.396,23.827,53.23,53.221,53.23
		c29.393,0,53.221-23.834,53.221-53.23C194.314,96.43,170.484,72.598,141.094,72.598z M115.636,103.785l50.355,0.028
		c1.831,0.001,2.271,1.062,0.976,2.356l-23.783,23.783c-1.294,1.295-3.414,1.295-4.708,0l-23.814-23.814
		C113.365,104.843,113.804,103.784,115.636,103.785z M169.271,145.13c0,1.572-1.287,2.859-2.858,2.859h-51.097
		c-1.572,0-2.859-1.287-2.859-2.859v-32.774c0-1.572,0.91-1.949,2.021-0.837l23.19,23.19c1.112,1.111,1.942,1.602,3.158,1.602
		c1.217,0,2.047-0.49,3.158-1.602l23.265-23.264c1.112-1.112,2.021-0.735,2.021,0.837v32.848H169.271z"/>
</g>
<g>
	<g enable-background="new    ">
		<path fill="#231F20" d="M97.883,231.924l4.702,11.268h0.053l4.72-11.268h1.389v12.797h-1.046v-5.651l0.088-5.599l-0.053-0.018
			l-4.755,11.268h-0.729l-4.746-11.215l-0.053,0.009l0.097,5.555v5.651h-1.046v-12.797H97.883z"/>
		<path fill="#231F20" d="M119.311,238.524h-6.161v5.3h7.058v0.896h-8.104v-12.797h8.06v0.896h-7.014v4.808h6.161V238.524z"/>
		<path fill="#231F20" d="M129.796,241.578c0-0.696-0.261-1.265-0.782-1.706c-0.521-0.442-1.43-0.833-2.725-1.172
			c-1.4-0.352-2.461-0.809-3.182-1.371s-1.081-1.321-1.081-2.276c0-0.979,0.403-1.775,1.208-2.391s1.841-0.923,3.107-0.923
			c1.318,0,2.382,0.366,3.19,1.099s1.201,1.626,1.178,2.681l-0.026,0.053h-0.967c0-0.855-0.303-1.559-0.91-2.109
			s-1.428-0.826-2.465-0.826c-1.025,0-1.827,0.229-2.404,0.686s-0.866,1.025-0.866,1.705c0,0.645,0.267,1.183,0.8,1.612
			c0.533,0.432,1.453,0.811,2.76,1.139c1.377,0.352,2.424,0.826,3.142,1.424s1.077,1.386,1.077,2.364
			c0,1.02-0.417,1.831-1.252,2.435s-1.9,0.905-3.195,0.905c-1.277,0-2.392-0.321-3.344-0.962c-0.952-0.643-1.414-1.578-1.384-2.809
			l0.018-0.053h0.967c0,0.993,0.372,1.729,1.116,2.208c0.744,0.479,1.62,0.719,2.628,0.719c1.014,0,1.833-0.223,2.457-0.667
			S129.796,242.31,129.796,241.578z"/>
		<path fill="#231F20" d="M140.616,241.578c0-0.696-0.261-1.265-0.782-1.706c-0.521-0.442-1.43-0.833-2.725-1.172
			c-1.4-0.352-2.461-0.809-3.182-1.371s-1.081-1.321-1.081-2.276c0-0.979,0.403-1.775,1.208-2.391s1.841-0.923,3.107-0.923
			c1.318,0,2.382,0.366,3.19,1.099s1.201,1.626,1.178,2.681l-0.026,0.053h-0.967c0-0.855-0.303-1.559-0.91-2.109
			s-1.428-0.826-2.465-0.826c-1.025,0-1.827,0.229-2.404,0.686s-0.866,1.025-0.866,1.705c0,0.645,0.267,1.183,0.8,1.612
			c0.533,0.432,1.453,0.811,2.76,1.139c1.377,0.352,2.424,0.826,3.142,1.424s1.077,1.386,1.077,2.364
			c0,1.02-0.417,1.831-1.252,2.435s-1.9,0.905-3.195,0.905c-1.277,0-2.392-0.321-3.344-0.962c-0.952-0.643-1.414-1.578-1.384-2.809
			l0.018-0.053h0.967c0,0.993,0.372,1.729,1.116,2.208c0.744,0.479,1.62,0.719,2.628,0.719c1.014,0,1.833-0.223,2.457-0.667
			S140.616,242.31,140.616,241.578z"/>
		<path fill="#231F20" d="M150.986,241.152h-5.861l-1.318,3.568h-1.09l4.86-12.797h0.994l4.824,12.797h-1.09L150.986,241.152z
			 M145.477,240.212h5.168l-2.549-6.926h-0.053L145.477,240.212z"/>
		<path fill="#231F20" d="M164.391,243.2c-0.287,0.416-0.811,0.804-1.569,1.165c-0.759,0.359-1.716,0.54-2.87,0.54
			c-1.488,0-2.708-0.507-3.66-1.521s-1.428-2.326-1.428-3.938v-2.347c0-1.582,0.452-2.871,1.357-3.867s2.078-1.494,3.52-1.494
			c1.377,0,2.454,0.345,3.23,1.032c0.776,0.689,1.227,1.584,1.35,2.686l-0.018,0.053h-0.977c-0.152-0.855-0.512-1.548-1.08-2.078
			s-1.404-0.796-2.506-0.796c-1.148,0-2.072,0.416-2.772,1.247s-1.05,1.897-1.05,3.196v2.363c0,1.335,0.371,2.43,1.115,3.284
			s1.717,1.282,2.918,1.282c0.85,0,1.572-0.118,2.167-0.355c0.595-0.236,1.001-0.495,1.218-0.776v-3.333h-3.402v-0.896h4.457V243.2z
			"/>
		<path fill="#231F20" d="M174.779,238.524h-6.162v5.3h7.059v0.896h-8.104v-12.797h8.059v0.896h-7.014v4.808h6.162V238.524z"/>
		<path fill="#231F20" d="M185.264,241.578c0-0.696-0.26-1.265-0.781-1.706c-0.521-0.442-1.43-0.833-2.725-1.172
			c-1.4-0.352-2.461-0.809-3.182-1.371s-1.082-1.321-1.082-2.276c0-0.979,0.403-1.775,1.209-2.391s1.842-0.923,3.107-0.923
			c1.318,0,2.381,0.366,3.189,1.099s1.201,1.626,1.178,2.681l-0.025,0.053h-0.967c0-0.855-0.304-1.559-0.91-2.109
			s-1.428-0.826-2.465-0.826c-1.025,0-1.827,0.229-2.404,0.686s-0.865,1.025-0.865,1.705c0,0.645,0.266,1.183,0.799,1.612
			c0.533,0.432,1.453,0.811,2.76,1.139c1.377,0.352,2.425,0.826,3.143,1.424s1.076,1.386,1.076,2.364
			c0,1.02-0.417,1.831-1.252,2.435s-1.9,0.905-3.195,0.905c-1.277,0-2.392-0.321-3.344-0.962c-0.952-0.643-1.414-1.578-1.385-2.809
			l0.018-0.053h0.967c0,0.993,0.373,1.729,1.117,2.208c0.744,0.479,1.619,0.719,2.627,0.719c1.014,0,1.833-0.223,2.457-0.667
			S185.264,242.31,185.264,241.578z"/>
	</g>
</g>
</svg>
