<?xml version="1.0" encoding="utf-8"?>
<!-- Generator: Adobe Illustrator 16.0.0, SVG Export Plug-In . SVG Version: 6.00 Build 0)  -->
<!DOCTYPE svg PUBLIC "-//W3C//DTD SVG 1.1//EN" "http://www.w3.org/Graphics/SVG/1.1/DTD/svg11.dtd">
<svg version="1.1" id="Layer_1" xmlns="http://www.w3.org/2000/svg" xmlns:xlink="http://www.w3.org/1999/xlink" x="0px" y="0px"
	 width="285px" height="285px" viewBox="0 0 285 285" enable-background="new 0 0 285 285" xml:space="preserve">
<g opacity="0.8">
	<path fill="#CCFFFF" d="M284.766,245c0,22-18,40-40,40h-205c-22,0-40-18-40-40V40c0-22,18-40,40-40h205c22,0,40,18,40,40V245z"/>
</g>
<g>
	<g enable-background="new    ">
		<path fill="#231F20" d="M107.339,239.484l0.018,0.053c-0.111,1.283-0.568,2.293-1.371,3.028s-1.878,1.103-3.226,1.103
			c-1.424,0-2.572-0.515-3.445-1.542c-0.873-1.029-1.31-2.36-1.31-3.995v-2.083c0-1.629,0.437-2.96,1.31-3.994
			s2.021-1.552,3.445-1.552c1.359,0,2.438,0.36,3.234,1.081s1.251,1.734,1.362,3.041l-0.018,0.053h-0.984
			c-0.141-1.061-0.505-1.872-1.094-2.435s-1.422-0.844-2.5-0.844c-1.119,0-2.017,0.434-2.694,1.3s-1.015,1.976-1.015,3.328v2.1
			c0,1.37,0.338,2.486,1.015,3.351c0.677,0.863,1.575,1.295,2.694,1.295c1.078,0,1.913-0.274,2.505-0.824
			c0.592-0.549,0.955-1.37,1.09-2.463H107.339z"/>
		<path fill="#231F20" d="M116.937,239.915h-5.862l-1.318,3.568h-1.09l4.86-12.797h0.993l4.825,12.797h-1.09L116.937,239.915z
			 M111.426,238.975h5.168l-2.549-6.926h-0.053L111.426,238.975z"/>
		<path fill="#231F20" d="M122.36,242.587h6.328v0.896h-7.383v-12.797h1.055V242.587z"/>
		<path fill="#231F20" d="M137.996,237.287h-6.161v5.3h7.058v0.896h-8.104v-12.797h8.06v0.896h-7.014v4.808h6.161V237.287z"/>
		<path fill="#231F20" d="M150.582,243.483h-1.047l-7.268-11.004l-0.053,0.009v10.995h-1.055v-12.797h1.055l7.268,10.986
			l0.053-0.009v-10.978h1.047V243.483z"/>
		<path fill="#231F20" d="M153.939,243.483v-12.797h3.717c1.564,0,2.857,0.521,3.877,1.564s1.529,2.382,1.529,4.017v1.644
			c0,1.641-0.51,2.979-1.529,4.017s-2.312,1.556-3.877,1.556H153.939z M154.984,231.583v11.004h2.672
			c1.266,0,2.308-0.442,3.125-1.326s1.227-2.002,1.227-3.354v-1.669c0-1.335-0.41-2.444-1.23-3.328s-1.861-1.326-3.121-1.326
			H154.984z"/>
		<path fill="#231F20" d="M172.439,239.915h-5.861l-1.318,3.568h-1.09l4.859-12.797h0.994l4.824,12.797h-1.09L172.439,239.915z
			 M166.93,238.975h5.168l-2.549-6.926h-0.053L166.93,238.975z"/>
		<path fill="#231F20" d="M177.828,237.7v5.783h-1.047v-12.788h4.334c1.371,0,2.422,0.301,3.154,0.901s1.1,1.478,1.1,2.632
			c0,0.68-0.197,1.288-0.59,1.823c-0.393,0.537-0.945,0.928-1.66,1.174c0.791,0.199,1.36,0.556,1.709,1.068s0.523,1.155,0.523,1.929
			v1.204c0,0.398,0.047,0.756,0.141,1.072s0.248,0.574,0.465,0.773v0.211h-1.072c-0.217-0.211-0.369-0.507-0.457-0.888
			s-0.131-0.776-0.131-1.187v-1.169c0-0.785-0.254-1.404-0.761-1.858s-1.214-0.682-2.122-0.682H177.828z M177.828,236.804h3.154
			c1.154,0,1.998-0.232,2.531-0.699c0.533-0.465,0.801-1.094,0.801-1.885c0-0.844-0.266-1.492-0.796-1.947
			c-0.53-0.453-1.331-0.681-2.403-0.681h-3.287V236.804z"/>
	</g>
</g>
<g>
	<path fill="#FFFFFF" d="M167.482,135.778c0,5.935-4.832,10.764-10.762,10.764h-32.938c-5.937,0-10.766-4.829-10.766-10.764V99.92
		c0-5.938,4.829-10.769,10.766-10.769h2.275v-2.855c0-1.581,1.284-2.867,2.868-2.867c1.582,0,2.859,1.286,2.859,2.867v2.855h16.925
		v-2.855c0-1.581,1.284-2.867,2.868-2.867c1.581,0,2.859,1.286,2.859,2.867v2.855h2.28c5.931,0,10.763,4.83,10.763,10.769v35.858
		H167.482z"/>
	<g>
		<path fill="#066899" d="M140.248,65.263c-28.533,0-51.669,23.131-51.669,51.668c0,28.542,23.137,51.678,51.669,51.678
			c28.541,0,51.678-23.137,51.678-51.678C191.926,88.394,168.789,65.263,140.248,65.263z M167.482,135.778
			c0,5.935-4.832,10.764-10.762,10.764h-32.938c-5.937,0-10.766-4.829-10.766-10.764V99.92c0-5.938,4.829-10.769,10.766-10.769
			h2.275v-2.855c0-1.581,1.284-2.867,2.868-2.867c1.582,0,2.859,1.286,2.859,2.867v2.855h16.925v-2.855
			c0-1.581,1.284-2.867,2.868-2.867c1.581,0,2.859,1.286,2.859,2.867v2.855h2.28c5.931,0,10.763,4.83,10.763,10.769v35.858H167.482z
			"/>
		<path fill="#066899" d="M131.963,135.057c0,0.873-0.703,1.579-1.58,1.579h-6.25c-0.877,0-1.585-0.706-1.585-1.579V128.8
			c0-0.875,0.708-1.58,1.585-1.58h6.25c0.877,0,1.58,0.705,1.58,1.58V135.057z M131.963,122.437c0,0.877-0.703,1.584-1.58,1.584
			h-6.25c-0.877,0-1.585-0.707-1.585-1.584v-6.248c0-0.877,0.708-1.59,1.585-1.59h6.25c0.877,0,1.58,0.713,1.58,1.59V122.437z
			 M131.963,109.82c0,0.878-0.703,1.585-1.58,1.585h-6.25c-0.877,0-1.585-0.707-1.585-1.585v-6.251c0-0.873,0.708-1.58,1.585-1.58
			h6.25c0.877,0,1.58,0.707,1.58,1.58V109.82z M144.957,135.057c0,0.873-0.702,1.579-1.579,1.579h-6.253
			c-0.875,0-1.583-0.706-1.583-1.579V128.8c0-0.875,0.708-1.58,1.583-1.58h6.253c0.877,0,1.579,0.705,1.579,1.58V135.057z
			 M144.957,122.437c0,0.877-0.702,1.584-1.579,1.584h-6.253c-0.875,0-1.583-0.707-1.583-1.584v-6.248
			c0-0.877,0.708-1.59,1.583-1.59h6.253c0.877,0,1.579,0.713,1.579,1.59V122.437z M144.957,109.82c0,0.878-0.702,1.585-1.579,1.585
			h-6.253c-0.875,0-1.583-0.707-1.583-1.585v-6.251c0-0.873,0.708-1.58,1.583-1.58h6.253c0.877,0,1.579,0.707,1.579,1.58V109.82z
			 M157.951,135.057c0,0.873-0.701,1.579-1.582,1.579h-6.254c-0.871,0-1.58-0.706-1.58-1.579V128.8c0-0.875,0.709-1.58,1.58-1.58
			h6.254c0.881,0,1.582,0.705,1.582,1.58V135.057z M157.951,122.437c0,0.877-0.701,1.584-1.582,1.584h-6.254
			c-0.871,0-1.58-0.707-1.58-1.584v-6.248c0-0.877,0.709-1.59,1.58-1.59h6.254c0.881,0,1.582,0.713,1.582,1.59V122.437z
			 M157.951,109.82c0,0.878-0.701,1.585-1.582,1.585h-6.254c-0.871,0-1.58-0.707-1.58-1.585v-6.251c0-0.873,0.709-1.58,1.58-1.58
			h6.254c0.881,0,1.582,0.707,1.582,1.58V109.82z"/>
	</g>
</g>
</svg>
