<?xml version="1.0" encoding="utf-8"?>
<!-- Generator: Adobe Illustrator 16.0.0, SVG Export Plug-In . SVG Version: 6.00 Build 0)  -->
<!DOCTYPE svg PUBLIC "-//W3C//DTD SVG 1.1//EN" "http://www.w3.org/Graphics/SVG/1.1/DTD/svg11.dtd">
<svg version="1.1" id="Layer_1" xmlns="http://www.w3.org/2000/svg" xmlns:xlink="http://www.w3.org/1999/xlink" x="0px" y="0px"
	 width="285px" height="285px" viewBox="0 0 285 285" enable-background="new 0 0 285 285" xml:space="preserve">
<g opacity="0.8">
	<path fill="#CCFFFF" d="M284.766,245c0,22-18,40-40,40h-205c-22,0-40-18-40-40V40c0-22,18-40,40-40h205c22,0,40,18,40,40V245z"/>
</g>
<g>
	<path fill="#FFFFFF" d="M88.405,126.647c0,28.614,23.196,51.811,51.805,51.811c28.61,0,51.812-23.196,51.812-51.811
		c0-28.613-23.199-51.805-51.812-51.805C111.602,74.843,88.405,98.034,88.405,126.647z"/>
	<g>
		<path fill="#38BFC3" d="M88.405,126.647c0,28.614,23.196,51.811,51.805,51.811c28.61,0,51.812-23.196,51.812-51.811
			c0-28.613-23.199-51.805-51.812-51.805C111.602,74.843,88.405,98.034,88.405,126.647z M159.852,124.793l-5.201,5.203
			l-22.725-22.719l5.199-5.203L159.852,124.793z M152.262,132.391l-5.209,5.199l-22.719-22.722l5.2-5.203L152.262,132.391z
			 M155.729,150.139l8.862-8.854l2.284,11.159L155.729,150.139z M141.589,147.221l20.085-20.083l2.241,10.905l-11.429,11.431
			L141.589,147.221z M116.748,122.457l5.199-5.2l22.722,22.717l-5.204,5.209L116.748,122.457z M115.414,100.968
			c5.229-5.226,13.487-5.555,19.095-0.978l-20.072,20.058C109.868,114.45,110.195,106.189,115.414,100.968z"/>
	</g>
</g>
<g>
	<g enable-background="new    ">
		<path fill="#231F20" d="M106.166,244.074h6.328v0.896h-7.383v-12.797h1.055V244.074z"/>
		<path fill="#231F20" d="M121.802,238.774h-6.161v5.3h7.058v0.896h-8.104v-12.797h8.06v0.896h-7.014v4.808h6.161V238.774z"/>
		<path fill="#231F20" d="M132.287,241.828c0-0.696-0.261-1.265-0.782-1.706c-0.521-0.442-1.43-0.833-2.725-1.172
			c-1.4-0.352-2.461-0.809-3.182-1.371s-1.081-1.321-1.081-2.276c0-0.979,0.403-1.775,1.208-2.391s1.841-0.923,3.107-0.923
			c1.318,0,2.382,0.366,3.19,1.099s1.201,1.626,1.178,2.681l-0.026,0.053h-0.967c0-0.855-0.303-1.559-0.91-2.109
			s-1.428-0.826-2.465-0.826c-1.025,0-1.827,0.229-2.404,0.686s-0.866,1.025-0.866,1.705c0,0.645,0.267,1.183,0.8,1.612
			c0.533,0.432,1.453,0.811,2.76,1.139c1.377,0.352,2.424,0.826,3.142,1.424s1.077,1.386,1.077,2.364
			c0,1.02-0.417,1.831-1.252,2.435s-1.9,0.905-3.195,0.905c-1.277,0-2.392-0.321-3.344-0.962c-0.952-0.643-1.414-1.578-1.384-2.809
			l0.018-0.053h0.967c0,0.993,0.372,1.729,1.116,2.208c0.744,0.479,1.62,0.719,2.628,0.719c1.014,0,1.833-0.223,2.457-0.667
			S132.287,242.56,132.287,241.828z"/>
		<path fill="#231F20" d="M143.106,241.828c0-0.696-0.261-1.265-0.782-1.706c-0.521-0.442-1.43-0.833-2.725-1.172
			c-1.4-0.352-2.461-0.809-3.182-1.371s-1.081-1.321-1.081-2.276c0-0.979,0.403-1.775,1.208-2.391s1.841-0.923,3.107-0.923
			c1.318,0,2.382,0.366,3.19,1.099s1.201,1.626,1.178,2.681l-0.026,0.053h-0.967c0-0.855-0.303-1.559-0.91-2.109
			s-1.428-0.826-2.465-0.826c-1.025,0-1.827,0.229-2.404,0.686s-0.866,1.025-0.866,1.705c0,0.645,0.267,1.183,0.8,1.612
			c0.533,0.432,1.453,0.811,2.76,1.139c1.377,0.352,2.424,0.826,3.142,1.424c0.719,0.598,1.077,1.386,1.077,2.364
			c0,1.02-0.417,1.831-1.252,2.435c-0.835,0.604-1.9,0.905-3.195,0.905c-1.277,0-2.392-0.321-3.344-0.962
			c-0.952-0.643-1.414-1.578-1.384-2.809l0.018-0.053h0.967c0,0.993,0.372,1.729,1.116,2.208c0.744,0.479,1.62,0.719,2.628,0.719
			c1.014,0,1.833-0.223,2.457-0.667S143.106,242.56,143.106,241.828z"/>
		<path fill="#231F20" d="M155.947,239.618c0,1.652-0.453,2.988-1.357,4.008c-0.906,1.02-2.12,1.529-3.644,1.529
			c-1.5,0-2.696-0.51-3.591-1.529c-0.893-1.02-1.34-2.355-1.34-4.008v-2.083c0-1.646,0.445-2.982,1.336-4.008
			s2.086-1.538,3.586-1.538c1.523,0,2.739,0.513,3.647,1.538s1.362,2.361,1.362,4.008V239.618z M154.901,237.524
			c0-1.385-0.351-2.499-1.05-3.345c-0.701-0.845-1.672-1.268-2.914-1.268c-1.219,0-2.168,0.423-2.848,1.268
			c-0.68,0.846-1.02,1.96-1.02,3.345v2.104c0,1.396,0.342,2.518,1.023,3.362c0.684,0.845,1.634,1.268,2.853,1.268
			c1.248,0,2.22-0.421,2.913-1.263c0.695-0.843,1.042-1.965,1.042-3.367V237.524z"/>
		<path fill="#231F20" d="M168.138,244.971h-1.046l-7.269-11.004l-0.053,0.009v10.995h-1.055v-12.797h1.055l7.269,10.986
			l0.053-0.009v-10.978h1.046V244.971z"/>
		<path fill="#231F20" d="M178.816,241.828c0-0.696-0.261-1.265-0.782-1.706c-0.521-0.442-1.43-0.833-2.725-1.172
			c-1.4-0.352-2.461-0.809-3.182-1.371s-1.081-1.321-1.081-2.276c0-0.979,0.402-1.775,1.209-2.391
			c0.805-0.615,1.841-0.923,3.106-0.923c1.318,0,2.382,0.366,3.19,1.099s1.201,1.626,1.178,2.681l-0.026,0.053h-0.967
			c0-0.855-0.304-1.559-0.909-2.109c-0.607-0.551-1.429-0.826-2.466-0.826c-1.025,0-1.827,0.229-2.403,0.686
			c-0.578,0.457-0.866,1.025-0.866,1.705c0,0.645,0.267,1.183,0.8,1.612c0.533,0.432,1.453,0.811,2.76,1.139
			c1.377,0.352,2.424,0.826,3.143,1.424c0.717,0.598,1.076,1.386,1.076,2.364c0,1.02-0.418,1.831-1.252,2.435
			c-0.836,0.604-1.9,0.905-3.195,0.905c-1.277,0-2.393-0.321-3.344-0.962c-0.953-0.643-1.414-1.578-1.385-2.809l0.018-0.053h0.967
			c0,0.993,0.372,1.729,1.116,2.208c0.744,0.479,1.62,0.719,2.628,0.719c1.014,0,1.832-0.223,2.457-0.667
			C178.504,243.147,178.816,242.56,178.816,241.828z"/>
	</g>
</g>
</svg>
