<?xml version="1.0" encoding="utf-8"?>
<!-- Generator: Adobe Illustrator 16.0.0, SVG Export Plug-In . SVG Version: 6.00 Build 0)  -->
<!DOCTYPE svg PUBLIC "-//W3C//DTD SVG 1.1//EN" "http://www.w3.org/Graphics/SVG/1.1/DTD/svg11.dtd">
<svg version="1.1" id="Layer_1" xmlns="http://www.w3.org/2000/svg" xmlns:xlink="http://www.w3.org/1999/xlink" x="0px" y="0px"
	 width="285px" height="285px" viewBox="0 0 285 285" enable-background="new 0 0 285 285" xml:space="preserve">
<g opacity="0.8">
	<path fill="#CCFFFF" d="M285.236,245c0,22-18,40-40,40h-205c-22,0-40-18-40-40V40c0-22,18-40,40-40h205c22,0,40,18,40,40V245z"/>
</g>
<g>
	<g enable-background="new    ">
		<path fill="#231F20" d="M107.676,237.687v5.783h-1.046v-12.788h4.333c1.371,0,2.423,0.301,3.155,0.901s1.099,1.478,1.099,2.632
			c0,0.68-0.196,1.288-0.589,1.823c-0.393,0.537-0.946,0.928-1.661,1.174c0.791,0.199,1.361,0.556,1.709,1.068
			s0.523,1.155,0.523,1.929v1.204c0,0.398,0.047,0.756,0.141,1.072s0.249,0.574,0.466,0.773v0.211h-1.072
			c-0.217-0.211-0.369-0.507-0.457-0.888s-0.132-0.776-0.132-1.187v-1.169c0-0.785-0.253-1.404-0.76-1.858s-1.214-0.682-2.123-0.682
			H107.676z M107.676,236.79h3.155c1.154,0,1.998-0.232,2.531-0.699c0.533-0.465,0.8-1.094,0.8-1.885
			c0-0.844-0.265-1.492-0.795-1.947c-0.53-0.453-1.332-0.681-2.404-0.681h-3.287V236.79z"/>
		<path fill="#231F20" d="M125.711,237.273h-6.161v5.3h7.058v0.896h-8.104v-12.797h8.06v0.896h-7.014v4.808h6.161V237.273z"/>
		<path fill="#231F20" d="M131.108,239.849l0.387,1.96l0.053,0.009l0.483-1.969l2.707-9.176h0.993l2.707,9.176l0.466,1.978
			l0.053-0.009l0.413-1.969l2.312-9.176h1.072l-3.287,12.797h-0.993l-2.874-9.817l-0.334-1.345h-0.053l-0.325,1.345l-2.9,9.817
			h-1.002l-3.287-12.797h1.081L131.108,239.849z"/>
		<path fill="#231F20" d="M151.49,239.901h-5.863l-1.318,3.568h-1.09l4.861-12.797h0.992l4.826,12.797h-1.09L151.49,239.901z
			 M145.979,238.961h5.168l-2.549-6.926h-0.053L145.979,238.961z"/>
		<path fill="#231F20" d="M156.877,237.687v5.783h-1.045v-12.788h4.332c1.371,0,2.424,0.301,3.156,0.901s1.098,1.478,1.098,2.632
			c0,0.68-0.195,1.288-0.588,1.823c-0.393,0.537-0.947,0.928-1.662,1.174c0.791,0.199,1.361,0.556,1.71,1.068
			s0.522,1.155,0.522,1.929v1.204c0,0.398,0.047,0.756,0.141,1.072s0.25,0.574,0.467,0.773v0.211h-1.072
			c-0.217-0.211-0.369-0.507-0.457-0.888s-0.133-0.776-0.133-1.187v-1.169c0-0.785-0.253-1.404-0.76-1.858s-1.215-0.682-2.123-0.682
			H156.877z M156.877,236.79h3.156c1.154,0,1.998-0.232,2.531-0.699c0.533-0.465,0.799-1.094,0.799-1.885
			c0-0.844-0.265-1.492-0.795-1.947c-0.53-0.453-1.332-0.681-2.404-0.681h-3.287V236.79z"/>
		<path fill="#231F20" d="M167.705,243.47v-12.797h3.719c1.564,0,2.855,0.521,3.875,1.564s1.529,2.382,1.529,4.017v1.644
			c0,1.641-0.51,2.979-1.529,4.017s-2.311,1.556-3.875,1.556H167.705z M168.752,231.569v11.004h2.672
			c1.266,0,2.307-0.442,3.124-1.326s1.226-2.002,1.226-3.354v-1.669c0-1.335-0.41-2.444-1.23-3.328s-1.859-1.326-3.119-1.326
			H168.752z"/>
		<path fill="#231F20" d="M186.84,240.327c0-0.696-0.262-1.265-0.783-1.706c-0.521-0.442-1.43-0.833-2.725-1.172
			c-1.4-0.352-2.461-0.809-3.182-1.371s-1.08-1.321-1.08-2.276c0-0.979,0.402-1.775,1.208-2.391s1.841-0.923,3.106-0.923
			c1.318,0,2.383,0.366,3.191,1.099s1.201,1.626,1.178,2.681l-0.027,0.053h-0.967c0-0.855-0.303-1.559-0.909-2.109
			s-1.429-0.826-2.466-0.826c-1.025,0-1.826,0.229-2.403,0.686s-0.866,1.025-0.866,1.705c0,0.645,0.268,1.183,0.801,1.612
			c0.533,0.432,1.453,0.811,2.76,1.139c1.377,0.352,2.424,0.826,3.142,1.424s1.077,1.386,1.077,2.364
			c0,1.02-0.418,1.831-1.253,2.435s-1.899,0.905-3.194,0.905c-1.277,0-2.393-0.321-3.345-0.962
			c-0.952-0.643-1.413-1.578-1.384-2.809l0.018-0.053h0.967c0,0.993,0.371,1.729,1.115,2.208c0.744,0.479,1.621,0.719,2.629,0.719
			c1.014,0,1.832-0.223,2.456-0.667S186.84,241.059,186.84,240.327z"/>
	</g>
</g>
<g>
	<path fill="#FFFFFF" d="M168.244,113.189c-2.961,1.668-4.225,5.559-2.811,8.641c1.407,3.072-0.175,5.262-3.513,4.908l6.134,14.885
		c1.069,2.482-0.115,3.7-2.625,2.695l-3.062-1.223c-2.519-1.006-5.394,0.229-6.396,2.739l-1.226,3.06
		c-1.002,2.516-2.692,2.535-3.765,0.051l-6.315-15.333c-0.144-0.332-0.293-0.703-0.446-1.098c-0.156,0.395-0.31,0.766-0.455,1.098
		l-6.782,15.258c-1.066,2.488-2.76,2.463-3.762-0.049l-1.229-3.055c-1-2.516-3.877-3.748-6.393-2.744l-3.055,1.223
		c-2.515,1.002-3.7-0.209-2.629-2.693l6.579-14.814c-3.322,0.346-4.894-1.842-3.493-4.908c1.414-3.082,0.148-6.973-2.811-8.641
		c-2.957-1.661-2.957-4.391,0-6.057c2.959-1.666,4.225-5.555,2.811-8.641c-1.412-3.087,0.189-5.291,3.561-4.904
		c3.373,0.391,6.682-2.006,7.348-5.339c0.669-3.325,3.266-4.171,5.762-1.868c2.499,2.298,6.595,2.298,9.084,0
		c2.507-2.303,5.095-1.457,5.769,1.868c0.668,3.333,3.971,5.729,7.346,5.339c3.375-0.387,4.979,1.817,3.562,4.904
		c-1.414,3.086-0.15,6.975,2.811,8.641C171.199,108.799,171.199,111.528,168.244,113.189z"/>
	<g>
		<path fill="#F7981F" d="M144.221,126.184c8.848,0,16.021-7.17,16.021-16.021c0-8.846-7.174-16.023-16.021-16.023
			c-8.852,0-16.027,7.178-16.027,16.023C128.193,119.014,135.369,126.184,144.221,126.184z"/>
		<path fill="#F7981F" d="M144.221,64.65c-28.928,0-52.38,23.447-52.38,52.372c0,28.929,23.452,52.38,52.38,52.38
			c28.924,0,52.375-23.451,52.375-52.38C196.596,88.098,173.145,64.65,144.221,64.65z M168.244,113.189
			c-2.961,1.668-4.225,5.559-2.811,8.641c1.407,3.072-0.175,5.262-3.513,4.908l6.134,14.885c1.069,2.482-0.115,3.7-2.625,2.695
			l-3.062-1.223c-2.519-1.006-5.394,0.229-6.396,2.739l-1.226,3.06c-1.002,2.516-2.692,2.535-3.765,0.051l-6.315-15.333
			c-0.144-0.332-0.293-0.703-0.446-1.098c-0.156,0.395-0.31,0.766-0.455,1.098l-6.782,15.258c-1.066,2.488-2.76,2.463-3.762-0.049
			l-1.229-3.055c-1-2.516-3.877-3.748-6.393-2.744l-3.055,1.223c-2.515,1.002-3.7-0.209-2.629-2.693l6.579-14.814
			c-3.322,0.346-4.894-1.842-3.493-4.908c1.414-3.082,0.148-6.973-2.811-8.641c-2.957-1.661-2.957-4.391,0-6.057
			c2.959-1.666,4.225-5.555,2.811-8.641c-1.412-3.087,0.189-5.291,3.561-4.904c3.373,0.391,6.682-2.006,7.348-5.339
			c0.669-3.325,3.266-4.171,5.762-1.868c2.499,2.298,6.595,2.298,9.084,0c2.507-2.303,5.095-1.457,5.769,1.868
			c0.668,3.333,3.971,5.729,7.346,5.339c3.375-0.387,4.979,1.817,3.562,4.904c-1.414,3.086-0.15,6.975,2.811,8.641
			C171.199,108.799,171.199,111.528,168.244,113.189z"/>
	</g>
	<path fill="#FFFFFF" d="M133.82,106.974c0.117-0.364,0.547-1.212,1.963-1.212l4.809-0.012c0.113-0.002,0.34-0.162,0.373-0.266
		l1.496-4.573c0.438-1.35,1.369-1.494,1.76-1.494c0.379,0,1.317,0.145,1.754,1.494l1.498,4.573c0.037,0.104,0.26,0.264,0.369,0.266
		l4.812,0.012c1.416,0,1.844,0.848,1.959,1.212c0.125,0.362,0.271,1.296-0.875,2.13l-3.885,2.834
		c-0.088,0.07-0.172,0.334-0.144,0.443l1.478,4.576c0.303,0.932,0.062,1.536-0.189,1.885c-0.301,0.426-0.789,0.666-1.326,0.666
		c-0.438,0-0.885-0.161-1.33-0.486l-3.896-2.82c-0.021-0.014-0.108-0.048-0.225-0.048c-0.127,0-0.212,0.034-0.236,0.048l-3.896,2.82
		c-0.445,0.322-0.893,0.486-1.322,0.486c-0.539,0-1.022-0.24-1.334-0.666c-0.25-0.349-0.488-0.953-0.186-1.885l1.475-4.576
		c0.039-0.109-0.053-0.373-0.139-0.443l-3.887-2.834C133.548,108.27,133.703,107.336,133.82,106.974z"/>
	<path fill="#FFFFFF" d="M133.82,106.974c0.117-0.364,0.547-1.212,1.963-1.212l4.809-0.012c0.113-0.002,0.34-0.162,0.373-0.266
		l1.496-4.573c0.438-1.35,1.369-1.494,1.76-1.494c0.379,0,1.317,0.145,1.754,1.494l1.498,4.573c0.037,0.104,0.26,0.264,0.369,0.266
		l4.812,0.012c1.416,0,1.844,0.848,1.959,1.212c0.125,0.362,0.271,1.296-0.875,2.13l-3.885,2.834
		c-0.088,0.07-0.172,0.334-0.144,0.443l1.478,4.576c0.303,0.932,0.062,1.536-0.189,1.885c-0.301,0.426-0.789,0.666-1.326,0.666
		c-0.438,0-0.885-0.161-1.33-0.486l-3.896-2.82c-0.021-0.014-0.108-0.048-0.225-0.048c-0.127,0-0.212,0.034-0.236,0.048l-3.896,2.82
		c-0.445,0.322-0.893,0.486-1.322,0.486c-0.539,0-1.022-0.24-1.334-0.666c-0.25-0.349-0.488-0.953-0.186-1.885l1.475-4.576
		c0.039-0.109-0.053-0.373-0.139-0.443l-3.887-2.834C133.548,108.27,133.703,107.336,133.82,106.974z"/>
</g>
</svg>
