<?xml version="1.0" encoding="utf-8"?>
<!-- Generator: Adobe Illustrator 16.0.0, SVG Export Plug-In . SVG Version: 6.00 Build 0)  -->
<!DOCTYPE svg PUBLIC "-//W3C//DTD SVG 1.1//EN" "http://www.w3.org/Graphics/SVG/1.1/DTD/svg11.dtd">
<svg version="1.1" id="Layer_1" xmlns="http://www.w3.org/2000/svg" xmlns:xlink="http://www.w3.org/1999/xlink" x="0px" y="0px"
	 width="138.104px" height="65.619px" viewBox="0 0 138.104 65.619" enable-background="new 0 0 138.104 65.619"
	 xml:space="preserve">
<g>
	<path fill="#26A9E0" d="M129.424,45.854c0,7.584-6.148,13.733-13.732,13.733H20.738c-7.586,0-13.735-6.149-13.735-13.733V20.136
		c0-7.586,6.149-13.734,13.735-13.734h94.953c7.584,0,13.732,6.148,13.732,13.734L129.424,45.854L129.424,45.854z"/>
	<g>
		<g enable-background="new    ">
			<path fill="#FFFFFF" d="M41.537,37.029c0-0.812-0.304-1.476-0.913-1.991s-1.668-0.971-3.179-1.366
				c-1.634-0.41-2.871-0.943-3.712-1.6s-1.261-1.542-1.261-2.656c0-1.142,0.47-2.071,1.41-2.789
				c0.939-0.718,2.148-1.076,3.625-1.076c1.538,0,2.779,0.427,3.722,1.281s1.401,1.896,1.374,3.127l-0.031,0.062h-1.128
				c0-0.998-0.354-1.818-1.061-2.461c-0.708-0.643-1.667-0.965-2.876-0.965c-1.196,0-2.131,0.268-2.804,0.801
				c-0.674,0.533-1.01,1.196-1.01,1.988c0,0.753,0.311,1.38,0.933,1.882c0.622,0.503,1.695,0.945,3.22,1.328
				c1.606,0.41,2.828,0.964,3.666,1.661c0.837,0.697,1.256,1.617,1.256,2.758c0,1.189-0.487,2.137-1.461,2.841
				c-0.975,0.704-2.217,1.056-3.728,1.056c-1.49,0-2.791-0.374-3.901-1.122c-1.111-0.749-1.649-1.841-1.615-3.276l0.021-0.062h1.128
				c0,1.159,0.434,2.018,1.302,2.576s1.89,0.839,3.066,0.839c1.183,0,2.138-0.26,2.866-0.778
				C41.173,38.568,41.537,37.882,41.537,37.029z"/>
			<path fill="#FFFFFF" d="M56.057,25.766v10.121c0,1.627-0.498,2.871-1.492,3.732c-0.995,0.861-2.292,1.291-3.892,1.291
				c-1.579,0-2.857-0.432-3.835-1.297c-0.978-0.864-1.466-2.107-1.466-3.727V25.766h1.23v10.113c0,1.271,0.376,2.253,1.128,2.946
				s1.733,1.04,2.943,1.04c1.23,0,2.232-0.346,3.004-1.035c0.772-0.69,1.159-1.674,1.159-2.951V25.766H56.057z"/>
			<path fill="#FFFFFF" d="M59.707,40.695v-14.93h4.358c1.552,0,2.76,0.327,3.625,0.979c0.864,0.653,1.297,1.637,1.297,2.95
				c0,0.766-0.217,1.433-0.651,2c-0.434,0.568-1.023,0.961-1.769,1.181c0.909,0.164,1.647,0.591,2.215,1.28
				c0.567,0.69,0.851,1.486,0.851,2.389c0,1.332-0.433,2.356-1.297,3.074s-2.021,1.076-3.471,1.076H59.707z M60.927,32.461h3.435
				c1.08,0,1.916-0.237,2.507-0.712c0.591-0.476,0.887-1.175,0.887-2.097c0-0.943-0.314-1.653-0.943-2.128
				c-0.629-0.476-1.545-0.713-2.748-0.713h-3.138V32.461z M60.927,33.508v6.142h3.938c1.101,0,1.965-0.271,2.594-0.812
				c0.629-0.541,0.943-1.3,0.943-2.274c0-0.892-0.286-1.624-0.856-2.196c-0.571-0.572-1.4-0.858-2.487-0.858H60.927z"/>
			<path fill="#FFFFFF" d="M74.329,25.766l5.486,13.146h0.061l5.507-13.146h1.62v14.93h-1.221v-6.594l0.104-6.531l-0.062-0.021
				l-5.547,13.146h-0.852l-5.537-13.084l-0.061,0.01l0.112,6.48v6.594h-1.22v-14.93H74.329z"/>
			<path fill="#FFFFFF" d="M92.417,40.695h-1.23v-14.93h1.23V40.695z"/>
			<path fill="#FFFFFF" d="M106.312,26.812h-5.138v13.884h-1.23V26.812h-5.138v-1.046h11.506V26.812z"/>
		</g>
	</g>
</g>
</svg>
