<?xml version="1.0" encoding="utf-8"?>
<!-- Generator: Adobe Illustrator 15.1.0, SVG Export Plug-In . SVG Version: 6.00 Build 0)  -->
<!DOCTYPE svg PUBLIC "-//W3C//DTD SVG 1.1//EN" "http://www.w3.org/Graphics/SVG/1.1/DTD/svg11.dtd" [
	<!ENTITY ns_flows "http://ns.adobe.com/Flows/1.0/">
	<!ENTITY ns_extend "http://ns.adobe.com/Extensibility/1.0/">
	<!ENTITY ns_ai "http://ns.adobe.com/AdobeIllustrator/10.0/">
	<!ENTITY ns_graphs "http://ns.adobe.com/Graphs/1.0/">
]>
<svg version="1.1" id="Layer_1" xmlns:x="&ns_extend;" xmlns:i="&ns_ai;" xmlns:graph="&ns_graphs;"
	 xmlns="http://www.w3.org/2000/svg" xmlns:xlink="http://www.w3.org/1999/xlink" xmlns:a="http://ns.adobe.com/AdobeSVGViewerExtensions/3.0/"
	 x="0px" y="0px" width="104px" height="104px" viewBox="0 0 104 104" enable-background="new 0 0 104 104" xml:space="preserve">
<g>
	<g>
		<path fill="#46C7F4" d="M103.104,52.28c0,28.262-22.903,51.175-51.162,51.175C23.68,103.455,0.77,80.542,0.77,52.28
			c0-28.256,22.911-51.167,51.172-51.167C80.2,1.114,103.104,24.024,103.104,52.28z"/>
	</g>
	<path fill="#FFFFFF" d="M64.823,84.191H44.646c-1.225,0-2.21,0.988-2.21,2.207c0,1.224,0.986,2.212,2.21,2.212h20.177
		c1.223,0,2.215-0.988,2.215-2.212C67.038,85.18,66.046,84.191,64.823,84.191z M67.579,24.849c0-0.978-0.797-1.768-1.777-1.768
		c-0.979,0-1.775,0.791-1.775,1.768c0,0.033,0.007,0.06,0.007,0.09c0,0.015-0.002,0.025-0.002,0.04v8.034
		c-0.028,1.235-0.527,2.168-1.842,2.168c-1.221,0-1.814-0.748-1.863-1.969V20.247c0-0.983-0.793-1.778-1.773-1.778
		c-0.981,0-1.778,0.795-1.778,1.778c0,0.038,0.008,0.071,0.008,0.102v0.023l-0.008,13.062c-0.149,1.235-0.732,1.749-1.926,1.749
		c-1.158,0-1.724-0.624-1.766-1.8V16.006c0-0.02,0.009-0.034,0.009-0.058c0-0.975-0.793-1.765-1.768-1.765
		c-0.857,0-1.568,0.612-1.729,1.424c-0.033,0.121-0.058,0.241-0.058,0.369l-0.001,17.317c-0.094,1.068-0.642,1.888-1.849,1.888
		c-1.136,0-1.745-0.645-1.845-1.714V20.15l-0.006-0.029c0.006-0.052,0.017-0.109,0.017-0.167c0-0.984-0.797-1.781-1.778-1.781
		c-0.978,0-1.777,0.797-1.777,1.781c0,0.021,0.009,0.04,0.009,0.067c-0.005,0.042-0.015,0.085-0.015,0.129
		c0,0.25-0.065,21.317-0.065,24.018c0,2.431-1.246,2.702-1.786,2.702c-0.598,0-1.084-0.317-1.176-0.378l-0.118-0.102l-4.068-4.07
		c-0.069-0.069-0.146-0.127-0.221-0.185c-0.458-0.521-1.128-0.853-1.878-0.853c-1.367,0-2.475,1.105-2.475,2.479
		c0,0.652,0.252,1.24,0.659,1.68c0.092,0.166,0.2,0.323,0.334,0.459l0.035,0.039c0,0,4.386,5.521,7.726,8.859
		c3.336,3.337,6.897,6.418,5.948,16.036c-0.275,2.743-0.821,6.814-1.103,8.096c-0.632,2.904,1.572,2.738,1.572,2.738
		s15.469,0,17.533,0s1.901-1.447,1.765-2.072c-0.51-2.301-2.104-11.018-2.278-12.493c-0.703-6.078,0.833-9.007,2.318-12.96
		c1.259-3.358,2.563-6.826,2.563-11.66V24.979c0-0.017-0.006-0.03-0.006-0.05C67.571,24.905,67.579,24.878,67.579,24.849z"/>
</g>
</svg>
