<?xml version="1.0" encoding="utf-8"?>
<!-- Generator: Adobe Illustrator 16.0.0, SVG Export Plug-In . SVG Version: 6.00 Build 0)  -->
<!DOCTYPE svg PUBLIC "-//W3C//DTD SVG 1.1//EN" "http://www.w3.org/Graphics/SVG/1.1/DTD/svg11.dtd">
<svg version="1.1" id="Layer_1" xmlns="http://www.w3.org/2000/svg" xmlns:xlink="http://www.w3.org/1999/xlink" x="0px" y="0px"
	 width="1611.878px" height="910.455px" viewBox="0 0 1611.878 910.455" enable-background="new 0 0 1611.878 910.455"
	 xml:space="preserve">
<rect fill="#AADEE9" width="1614.878" height="907.455"/>
<g>
	<g enable-background="new    ">
		<path fill="#FFFFFF" d="M1228.303,284.849c0,6.098-1.319,10.79-3.957,14.077c-2.639,3.287-6.304,4.931-10.996,4.931
			c-4.671,0-8.341-1.649-11.012-4.947c-2.671-3.297-4.006-7.984-4.006-14.061v-10.542c0-6.076,1.319-10.769,3.957-14.077
			s6.304-4.963,10.995-4.963c4.693,0,8.369,1.654,11.029,4.963c2.659,3.309,3.989,8.001,3.989,14.077V284.849z M1224.411,273.646
			c0-4.84-0.952-8.562-2.854-11.165s-4.66-3.906-8.271-3.906s-6.357,1.303-8.238,3.906s-2.822,6.325-2.822,11.165v11.765
			c0,4.798,0.957,8.52,2.871,11.166c1.914,2.647,4.666,3.971,8.255,3.971s6.33-1.318,8.223-3.954
			c1.892-2.637,2.838-6.363,2.838-11.183V273.646z"/>
		<path fill="#FFFFFF" d="M1267.032,284.849c0,6.098-1.319,10.79-3.957,14.077c-2.639,3.287-6.304,4.931-10.996,4.931
			c-4.671,0-8.341-1.649-11.012-4.947c-2.671-3.297-4.006-7.984-4.006-14.061v-10.542c0-6.076,1.319-10.769,3.957-14.077
			s6.304-4.963,10.995-4.963c4.693,0,8.369,1.654,11.029,4.963c2.659,3.309,3.989,8.001,3.989,14.077V284.849z M1263.139,273.646
			c0-4.84-0.952-8.562-2.854-11.165s-4.66-3.906-8.271-3.906s-6.357,1.303-8.238,3.906s-2.822,6.325-2.822,11.165v11.765
			c0,4.798,0.957,8.52,2.871,11.166c1.914,2.647,4.666,3.971,8.255,3.971s6.33-1.318,8.223-3.954
			c1.892-2.637,2.838-6.363,2.838-11.183V273.646z"/>
		<path fill="#FFFFFF" d="M1280.849,273.464h-4.443v-5.319h4.443V273.464z M1280.849,303.175h-4.443v-5.319h4.443V303.175z"/>
		<path fill="#FFFFFF" d="M1313.74,287.962h7.395v3.309h-7.395v11.904h-3.86v-11.904h-22.153v-2.228l21.764-33.095h4.25V287.962z
			 M1292.332,287.962h17.548v-26.921l-0.194-0.065l-1.654,3.536L1292.332,287.962z"/>
		<path fill="#FFFFFF" d="M1328.433,281.8l2.627-25.852h22.932v3.601h-19.623l-1.752,16.834c1.189-1.081,2.498-1.914,3.925-2.498
			c1.428-0.583,3.362-0.908,5.806-0.973c4.022-0.064,7.266,1.287,9.731,4.055c2.465,2.768,3.697,6.487,3.697,11.158
			c0,4.778-1.195,8.595-3.584,11.449c-2.39,2.854-5.984,4.282-10.785,4.282c-3.892,0-7.136-1.087-9.73-3.261
			c-2.595-2.173-3.839-5.389-3.729-9.649l0.064-0.194h3.471c0,3.169,0.902,5.593,2.708,7.274c1.806,1.681,4.211,2.521,7.217,2.521
			c3.503,0,6.125-1.058,7.866-3.175c1.74-2.116,2.61-5.183,2.61-9.199c0-3.52-0.87-6.344-2.61-8.471
			c-1.741-2.127-4.18-3.19-7.314-3.19c-3.027,0-5.336,0.481-6.926,1.443c-1.589,0.962-2.74,2.416-3.453,4.362L1328.433,281.8z"/>
		<path fill="#FFFFFF" d="M1368.555,273.464h-4.443v-5.319h4.443V273.464z M1368.555,303.175h-4.443v-5.319h4.443V303.175z"/>
		<path fill="#FFFFFF" d="M1407.543,284.849c0,6.098-1.319,10.79-3.957,14.077c-2.639,3.287-6.304,4.931-10.996,4.931
			c-4.671,0-8.342-1.649-11.012-4.947c-2.671-3.297-4.006-7.984-4.006-14.061v-10.542c0-6.076,1.318-10.769,3.957-14.077
			c2.638-3.309,6.304-4.963,10.996-4.963c4.691,0,8.368,1.654,11.028,4.963c2.659,3.309,3.989,8.001,3.989,14.077V284.849z
			 M1403.651,273.646c0-4.84-0.951-8.562-2.854-11.165c-1.902-2.604-4.66-3.906-8.271-3.906c-3.611,0-6.357,1.303-8.239,3.906
			c-1.881,2.604-2.821,6.325-2.821,11.165v11.765c0,4.798,0.956,8.52,2.87,11.166c1.914,2.647,4.665,3.971,8.255,3.971
			s6.33-1.318,8.223-3.954c1.892-2.637,2.838-6.363,2.838-11.183V273.646z"/>
		<path fill="#FFFFFF" d="M1446.272,284.849c0,6.098-1.319,10.79-3.957,14.077c-2.639,3.287-6.304,4.931-10.996,4.931
			c-4.671,0-8.342-1.649-11.012-4.947c-2.671-3.297-4.006-7.984-4.006-14.061v-10.542c0-6.076,1.318-10.769,3.957-14.077
			c2.638-3.309,6.304-4.963,10.996-4.963c4.691,0,8.368,1.654,11.028,4.963c2.659,3.309,3.989,8.001,3.989,14.077V284.849z
			 M1442.379,273.646c0-4.84-0.951-8.562-2.854-11.165c-1.902-2.604-4.66-3.906-8.271-3.906c-3.611,0-6.357,1.303-8.239,3.906
			c-1.881,2.604-2.821,6.325-2.821,11.165v11.765c0,4.798,0.956,8.52,2.87,11.166c1.914,2.647,4.665,3.971,8.255,3.971
			s6.33-1.318,8.223-3.954c1.892-2.637,2.838-6.363,2.838-11.183V273.646z"/>
	</g>
	<path opacity="0.4" fill="#666666" enable-background="new    " d="M1320.253,481.477c-111.127,0-201.535-90.41-201.535-201.54
		c0-111.127,90.408-201.538,201.535-201.538c111.131,0,201.541,90.411,201.541,201.538
		C1521.794,391.066,1431.384,481.477,1320.253,481.477z M1320.253,134.022c-80.455,0-145.91,65.456-145.91,145.914
		s65.455,145.916,145.91,145.916c80.459,0,145.916-65.458,145.916-145.916S1400.712,134.022,1320.253,134.022z"/>
	<path fill="none" stroke="#F16622" stroke-miterlimit="10" d="M1132.373,279.612"/>
	<path fill="none" stroke="#F16622" stroke-miterlimit="10" d="M1162.542,279.612"/>
	<path fill="#FF6666" d="M1320.253,481.477c-111.127,0-201.535-90.41-201.535-201.54c0-111.127,90.408-201.538,201.535-201.538
		v55.625c-80.455,0-145.91,65.457-145.91,145.914s65.455,145.916,145.91,145.916V481.477z"/>
	<path fill="#FF6666" d="M1466.169,279.937c0,0.105-0.004,0.209-0.004,0.314h55.623c0-0.105,0.006-0.209,0.006-0.314
		c0-111.128-90.41-201.538-201.541-201.538v55.625C1400.712,134.022,1466.169,199.479,1466.169,279.937z"/>
</g>
<g enable-background="new    ">
	<path fill="#FFFFFF" d="M105.898,278.955v15.17h-8.39v-41.832h16.664c4.808,0,8.591,1.226,11.349,3.677
		c2.758,2.452,4.137,5.68,4.137,9.683c0,4.004-1.379,7.222-4.137,9.654c-2.758,2.433-6.542,3.648-11.349,3.648H105.898z
		 M105.898,272.49h8.274c2.337,0,4.109-0.637,5.315-1.91s1.81-2.897,1.81-4.87c0-2.011-0.599-3.673-1.796-4.984
		c-1.197-1.312-2.974-1.969-5.33-1.969h-8.274V272.49z"/>
	<path fill="#FFFFFF" d="M143.966,294.125h-8.389v-44.82h8.389V294.125z"/>
	<path fill="#FFFFFF" d="M164.624,294.729c-4.482,0-8.064-1.437-10.745-4.31c-2.682-2.873-4.022-6.522-4.022-10.947v-1.148
		c0-4.616,1.269-8.419,3.807-11.406c2.538-2.988,5.942-4.473,10.214-4.454c4.195,0,7.451,1.265,9.769,3.793
		c2.317,2.528,3.477,5.947,3.477,10.257v4.568h-18.56l-0.058,0.172c0.153,2.041,0.838,3.721,2.054,5.036
		c1.216,1.316,2.868,1.975,4.956,1.975c1.858,0,3.4-0.187,4.626-0.561c1.226-0.373,2.566-0.962,4.022-1.767l2.27,5.185
		c-1.264,1.039-2.921,1.9-4.971,2.583C169.412,294.387,167.133,294.729,164.624,294.729z M163.877,268.928
		c-1.551,0-2.777,0.594-3.677,1.781c-0.901,1.188-1.456,2.749-1.667,4.684l0.086,0.144h10.286v-0.747
		c0-1.781-0.417-3.203-1.25-4.267S165.562,268.928,163.877,268.928z"/>
	<path fill="#FFFFFF" d="M200.25,294.125c-0.307-0.708-0.57-1.455-0.79-2.241c-0.22-0.785-0.378-1.59-0.474-2.413
		c-0.862,1.514-1.997,2.768-3.404,3.764c-1.408,0.996-3.089,1.494-5.042,1.494c-3.256,0-5.766-0.838-7.527-2.514
		c-1.763-1.677-2.644-3.96-2.644-6.853c0-3.046,1.173-5.406,3.52-7.082c2.346-1.677,5.77-2.515,10.271-2.515h4.683v-2.471
		c0-1.494-0.393-2.652-1.178-3.477c-0.786-0.823-1.944-1.235-3.477-1.235c-1.36,0-2.409,0.33-3.146,0.991
		c-0.738,0.661-1.106,1.576-1.106,2.744l-8.102-0.029l-0.029-0.172c-0.134-2.624,1.006-4.889,3.419-6.795
		c2.414-1.906,5.583-2.859,9.51-2.859c3.716,0,6.732,0.944,9.05,2.83c2.317,1.888,3.477,4.573,3.477,8.06v12.843
		c0,1.456,0.11,2.825,0.33,4.108s0.57,2.557,1.049,3.821H200.25z M192.58,288.522c1.475,0,2.787-0.363,3.936-1.092
		c1.149-0.728,1.925-1.57,2.327-2.528v-4.396h-4.683c-1.781,0-3.132,0.445-4.051,1.336c-0.919,0.891-1.379,1.968-1.379,3.232
		c0,1.034,0.345,1.867,1.034,2.499C190.454,288.206,191.392,288.522,192.58,288.522z"/>
	<path fill="#FFFFFF" d="M230.418,285.563c0-0.92-0.445-1.714-1.336-2.385s-2.542-1.265-4.956-1.781
		c-3.678-0.747-6.45-1.854-8.317-3.318c-1.868-1.466-2.801-3.463-2.801-5.991c0-2.681,1.125-4.956,3.375-6.823
		s5.263-2.802,9.036-2.802c3.965,0,7.12,0.93,9.467,2.787c2.346,1.858,3.471,4.205,3.375,7.039l-0.057,0.173h-8.103
		c0-1.245-0.398-2.26-1.192-3.046c-0.795-0.785-1.958-1.178-3.491-1.178c-1.36,0-2.428,0.33-3.204,0.991s-1.164,1.489-1.164,2.485
		c0,0.958,0.407,1.743,1.221,2.355c0.814,0.613,2.466,1.159,4.956,1.638c3.831,0.767,6.675,1.893,8.533,3.376
		c1.858,1.485,2.786,3.529,2.786,6.135c0,2.797-1.197,5.08-3.591,6.852c-2.395,1.772-5.555,2.658-9.481,2.658
		c-4.138,0-7.408-1.049-9.812-3.146c-2.404-2.097-3.548-4.486-3.433-7.168l0.058-0.173h7.671c0.058,1.667,0.604,2.873,1.638,3.62
		s2.385,1.121,4.051,1.121c1.551,0,2.734-0.307,3.548-0.92C230.011,287.45,230.418,286.617,230.418,285.563z"/>
	<path fill="#FFFFFF" d="M257.713,294.729c-4.482,0-8.064-1.437-10.746-4.31s-4.022-6.522-4.022-10.947v-1.148
		c0-4.616,1.269-8.419,3.808-11.406c2.537-2.988,5.942-4.473,10.214-4.454c4.194,0,7.45,1.265,9.769,3.793
		c2.317,2.528,3.477,5.947,3.477,10.257v4.568h-18.561l-0.058,0.172c0.153,2.041,0.838,3.721,2.055,5.036
		c1.216,1.316,2.868,1.975,4.956,1.975c1.857,0,3.399-0.187,4.625-0.561c1.226-0.373,2.566-0.962,4.022-1.767l2.27,5.185
		c-1.264,1.039-2.921,1.9-4.97,2.583C262.501,294.387,260.222,294.729,257.713,294.729z M256.966,268.928
		c-1.552,0-2.778,0.594-3.678,1.781c-0.9,1.188-1.456,2.749-1.667,4.684l0.087,0.144h10.285v-0.747c0-1.781-0.416-3.203-1.25-4.267
		C259.911,269.459,258.651,268.928,256.966,268.928z"/>
	<path fill="#FFFFFF" d="M302.792,288.264c1.494,0,2.69-0.433,3.592-1.299c0.899-0.866,1.35-2.023,1.35-3.471h7.614l0.086,0.173
		c0.076,3.142-1.106,5.771-3.548,7.887c-2.442,2.116-5.474,3.175-9.094,3.175c-4.636,0-8.208-1.466-10.717-4.396
		c-2.51-2.93-3.764-6.694-3.764-11.291v-0.861c0-4.578,1.25-8.342,3.749-11.292c2.5-2.949,6.067-4.425,10.703-4.425
		c3.83,0,6.919,1.092,9.266,3.275c2.346,2.184,3.48,5.057,3.404,8.62l-0.058,0.172h-7.643c0-1.608-0.44-2.944-1.321-4.008
		s-2.098-1.595-3.648-1.595c-2.223,0-3.788,0.861-4.698,2.582c-0.909,1.722-1.364,3.94-1.364,6.655v0.861
		c0,2.773,0.455,5.007,1.364,6.699C298.975,287.418,300.55,288.264,302.792,288.264z"/>
	<path fill="#FFFFFF" d="M329.023,294.125h-8.39v-44.82h8.39V294.125z"/>
	<path fill="#FFFFFF" d="M349.681,294.729c-4.482,0-8.064-1.437-10.746-4.31s-4.022-6.522-4.022-10.947v-1.148
		c0-4.616,1.269-8.419,3.808-11.406c2.537-2.988,5.942-4.473,10.214-4.454c4.194,0,7.45,1.265,9.769,3.793
		c2.317,2.528,3.477,5.947,3.477,10.257v4.568h-18.561l-0.058,0.172c0.153,2.041,0.838,3.721,2.055,5.036
		c1.216,1.316,2.868,1.975,4.956,1.975c1.857,0,3.399-0.187,4.625-0.561c1.226-0.373,2.566-0.962,4.022-1.767l2.27,5.185
		c-1.264,1.039-2.921,1.9-4.97,2.583C354.469,294.387,352.19,294.729,349.681,294.729z M348.934,268.928
		c-1.552,0-2.778,0.594-3.678,1.781c-0.9,1.188-1.456,2.749-1.667,4.684l0.087,0.144h10.285v-0.747c0-1.781-0.416-3.203-1.25-4.267
		C351.878,269.459,350.619,268.928,348.934,268.928z"/>
	<path fill="#FFFFFF" d="M385.307,294.125c-0.307-0.708-0.57-1.455-0.79-2.241c-0.221-0.785-0.378-1.59-0.474-2.413
		c-0.862,1.514-1.997,2.768-3.405,3.764c-1.407,0.996-3.088,1.494-5.042,1.494c-3.257,0-5.766-0.838-7.527-2.514
		c-1.763-1.677-2.644-3.96-2.644-6.853c0-3.046,1.173-5.406,3.52-7.082c2.347-1.677,5.771-2.515,10.271-2.515h4.684v-2.471
		c0-1.494-0.394-2.652-1.179-3.477c-0.785-0.823-1.944-1.235-3.477-1.235c-1.359,0-2.408,0.33-3.146,0.991s-1.106,1.576-1.106,2.744
		l-8.102-0.029l-0.029-0.172c-0.134-2.624,1.006-4.889,3.419-6.795c2.414-1.906,5.583-2.859,9.51-2.859
		c3.716,0,6.733,0.944,9.051,2.83c2.317,1.888,3.477,4.573,3.477,8.06v12.843c0,1.456,0.109,2.825,0.33,4.108
		c0.22,1.283,0.57,2.557,1.049,3.821H385.307z M377.636,288.522c1.475,0,2.787-0.363,3.937-1.092
		c1.148-0.728,1.925-1.57,2.327-2.528v-4.396h-4.684c-1.781,0-3.132,0.445-4.051,1.336c-0.92,0.891-1.379,1.968-1.379,3.232
		c0,1.034,0.345,1.867,1.034,2.499S376.449,288.522,377.636,288.522z"/>
	<path fill="#FFFFFF" d="M406.338,263.038l0.374,4.453c1.034-1.59,2.308-2.825,3.821-3.706c1.513-0.881,3.208-1.322,5.085-1.322
		c3.142,0,5.593,0.987,7.355,2.96c1.762,1.973,2.644,5.066,2.644,9.28v19.422h-8.419v-19.438c0-2.093-0.421-3.575-1.264-4.449
		s-2.117-1.311-3.821-1.311c-1.111,0-2.107,0.226-2.988,0.677s-1.618,1.09-2.212,1.915v22.605h-8.39v-31.087H406.338z"/>
	<path fill="#FFFFFF" d="M457.738,281.081l0.345,1.724h0.173l5.947-19.767h9.021l-12.613,35.741
		c-0.881,2.222-2.078,4.095-3.591,5.617c-1.514,1.522-3.783,2.284-6.81,2.284c-0.709,0-1.365-0.058-1.968-0.173
		c-0.604-0.114-1.336-0.277-2.198-0.488l0.977-6.119c0.249,0.038,0.518,0.076,0.805,0.114s0.546,0.058,0.775,0.058
		c1.38,0,2.442-0.34,3.189-1.02c0.747-0.681,1.321-1.528,1.724-2.543l0.978-2.413l-11.033-31.059h9.021L457.738,281.081z"/>
	<path fill="#FFFFFF" d="M474.804,278.294c0-4.635,1.293-8.433,3.879-11.392s6.167-4.439,10.745-4.439
		c4.598,0,8.198,1.476,10.803,4.425c2.605,2.95,3.908,6.752,3.908,11.406v0.604c0,4.674-1.298,8.48-3.894,11.421
		s-6.182,4.41-10.76,4.41c-4.597,0-8.193-1.47-10.788-4.41c-2.596-2.94-3.894-6.747-3.894-11.421V278.294z M483.166,278.883
		c0,2.831,0.497,5.102,1.493,6.813s2.605,2.567,4.827,2.567c2.164,0,3.749-0.86,4.755-2.582c1.006-1.721,1.509-3.987,1.509-6.799
		v-0.603c0-2.754-0.508-5.001-1.522-6.741c-1.016-1.741-2.615-2.611-4.799-2.611c-2.164,0-3.749,0.876-4.755,2.625
		c-1.006,1.75-1.508,3.993-1.508,6.728V278.883z"/>
	<path fill="#FFFFFF" d="M528.301,289.643c-0.958,1.629-2.174,2.884-3.648,3.764c-1.476,0.881-3.171,1.322-5.086,1.322
		c-3.275,0-5.837-1.049-7.686-3.146c-1.849-2.097-2.772-5.358-2.772-9.782v-18.762h8.361V281.9c0,2.265,0.383,3.893,1.148,4.881
		c0.767,0.988,1.896,1.482,3.391,1.482c1.341,0,2.489-0.216,3.447-0.647s1.743-1.07,2.356-1.915v-22.663h8.39v31.087h-7.154
		L528.301,289.643z"/>
	<path fill="#FFFFFF" d="M558.872,270.249l-3.074-0.086c-1.245,0-2.27,0.259-3.074,0.776c-0.804,0.517-1.417,1.245-1.838,2.184
		v21.002h-8.361v-31.087h7.786l0.374,4.597c0.728-1.628,1.671-2.896,2.829-3.807c1.159-0.909,2.495-1.365,4.009-1.365
		c0.421,0,0.809,0.034,1.163,0.101c0.354,0.067,0.714,0.149,1.077,0.245L558.872,270.249z"/>
	<path fill="#FFFFFF" d="M594.125,270.249l-3.074-0.086c-1.245,0-2.27,0.259-3.074,0.776c-0.804,0.517-1.417,1.245-1.838,2.184
		v21.002h-8.361v-31.087h7.786l0.374,4.597c0.728-1.628,1.671-2.896,2.829-3.807c1.159-0.909,2.495-1.365,4.009-1.365
		c0.421,0,0.809,0.034,1.163,0.101c0.354,0.067,0.714,0.149,1.077,0.245L594.125,270.249z"/>
	<path fill="#FFFFFF" d="M597.083,278.294c0-4.635,1.293-8.433,3.879-11.392s6.167-4.439,10.745-4.439
		c4.598,0,8.198,1.476,10.803,4.425c2.605,2.95,3.908,6.752,3.908,11.406v0.604c0,4.674-1.298,8.48-3.894,11.421
		s-6.182,4.41-10.76,4.41c-4.597,0-8.193-1.47-10.788-4.41c-2.596-2.94-3.894-6.747-3.894-11.421V278.294z M605.445,278.883
		c0,2.831,0.497,5.102,1.493,6.813s2.605,2.567,4.827,2.567c2.164,0,3.749-0.86,4.755-2.582c1.006-1.721,1.509-3.987,1.509-6.799
		v-0.603c0-2.754-0.508-5.001-1.522-6.741c-1.016-1.741-2.615-2.611-4.799-2.611c-2.164,0-3.749,0.876-4.755,2.625
		c-1.006,1.75-1.508,3.993-1.508,6.728V278.883z"/>
	<path fill="#FFFFFF" d="M630.296,278.294c0-4.635,1.293-8.433,3.879-11.392s6.167-4.439,10.745-4.439
		c4.598,0,8.198,1.476,10.803,4.425c2.605,2.95,3.908,6.752,3.908,11.406v0.604c0,4.674-1.298,8.48-3.894,11.421
		s-6.182,4.41-10.76,4.41c-4.597,0-8.193-1.47-10.788-4.41c-2.596-2.94-3.894-6.747-3.894-11.421V278.294z M638.658,278.883
		c0,2.831,0.497,5.102,1.493,6.813s2.605,2.567,4.827,2.567c2.164,0,3.749-0.86,4.755-2.582c1.006-1.721,1.509-3.987,1.509-6.799
		v-0.603c0-2.754-0.508-5.001-1.522-6.741c-1.016-1.741-2.615-2.611-4.799-2.611c-2.164,0-3.749,0.876-4.755,2.625
		c-1.006,1.75-1.508,3.993-1.508,6.728V278.883z"/>
	<path fill="#FFFFFF" d="M672.589,263.038l0.345,4.108c0.996-1.494,2.246-2.647,3.75-3.462c1.503-0.814,3.241-1.222,5.214-1.222
		c1.992,0,3.697,0.441,5.114,1.322s2.49,2.212,3.218,3.993c0.958-1.666,2.203-2.969,3.735-3.907s3.333-1.408,5.401-1.408
		c3.064,0,5.482,1.059,7.255,3.175c1.771,2.117,2.657,5.34,2.657,9.669v18.818h-8.39v-18.891c0-2.361-0.383-4.003-1.148-4.924
		c-0.767-0.922-1.906-1.383-3.419-1.383c-1.188,0-2.218,0.264-3.089,0.792c-0.872,0.528-1.566,1.263-2.083,2.203
		c0,0.365,0.009,0.677,0.028,0.936c0.02,0.26,0.029,0.523,0.029,0.792v20.475h-8.361v-18.891c0-2.304-0.383-3.931-1.149-4.881
		c-0.766-0.95-1.915-1.426-3.447-1.426c-1.131,0-2.122,0.217-2.974,0.648c-0.853,0.432-1.557,1.041-2.111,1.828v22.721h-8.361
		v-31.087H672.589z"/>
</g>
<g enable-background="new    ">
	<path fill="#FFFFFF" d="M100.64,364.734v-28.271h-5.143v-2.815h5.143v-4.54c0-3.121,0.78-5.535,2.342-7.24
		c1.561-1.704,3.749-2.557,6.565-2.557c0.632,0,1.273,0.048,1.925,0.144c0.651,0.097,1.312,0.229,1.982,0.402l-0.431,2.845
		c-0.46-0.115-0.934-0.206-1.422-0.273c-0.488-0.066-1.059-0.101-1.709-0.101c-1.877,0-3.314,0.594-4.31,1.781
		c-0.996,1.188-1.494,2.854-1.494,4.999v4.54h7.413v2.815h-7.413v28.271H100.64z"/>
	<path fill="#FFFFFF" d="M115.552,348.731c0-4.578,1.254-8.332,3.764-11.263c2.509-2.931,5.833-4.396,9.97-4.396
		c4.156,0,7.489,1.466,9.998,4.396s3.764,6.685,3.764,11.263v0.948c0,4.597-1.25,8.355-3.75,11.276s-5.818,4.382-9.956,4.382
		c-4.176,0-7.518-1.461-10.027-4.382c-2.51-2.921-3.764-6.68-3.764-11.276V348.731z M118.999,349.664
		c0,3.598,0.91,6.621,2.729,9.069c1.82,2.449,4.357,3.674,7.614,3.674c3.199,0,5.713-1.225,7.542-3.674
		c1.829-2.448,2.744-5.472,2.744-9.069v-0.947c0-3.539-0.919-6.543-2.758-9.011c-1.839-2.469-4.367-3.703-7.585-3.703
		c-3.218,0-5.737,1.234-7.557,3.703c-1.82,2.468-2.729,5.472-2.729,9.011V349.664z"/>
	<path fill="#FFFFFF" d="M164.538,336.606l-2.557-0.172c-2.165,0-3.941,0.608-5.33,1.824c-1.389,1.217-2.38,2.888-2.974,5.014
		v21.462h-3.448v-31.087h3.017l0.431,5.172v0.345c0.9-1.915,2.107-3.409,3.62-4.482c1.513-1.072,3.313-1.609,5.401-1.609
		c0.44,0,0.866,0.034,1.278,0.101c0.412,0.067,0.751,0.14,1.02,0.216L164.538,336.606z"/>
	<path fill="#FFFFFF" d="M218.552,364.734c-0.23-1.053-0.393-1.963-0.488-2.729c-0.096-0.766-0.144-1.542-0.144-2.327
		c-1.149,1.628-2.682,2.979-4.597,4.051c-1.916,1.072-4.07,1.609-6.464,1.609c-3.027,0-5.378-0.805-7.054-2.413
		c-1.676-1.609-2.514-3.765-2.514-6.465c0-2.873,1.24-5.172,3.721-6.896c2.48-1.724,5.827-2.586,10.042-2.586h6.867v-3.85
		c0-2.222-0.714-3.965-2.141-5.229c-1.427-1.264-3.424-1.896-5.99-1.896c-2.395,0-4.382,0.604-5.962,1.811s-2.37,2.682-2.37,4.425
		l-3.161-0.029l-0.058-0.172c-0.115-2.317,0.943-4.392,3.175-6.221s5.071-2.744,8.519-2.744c3.428,0,6.187,0.872,8.274,2.615
		c2.087,1.743,3.132,4.242,3.132,7.499v15.284c0,1.092,0.062,2.155,0.187,3.189s0.331,2.06,0.618,3.074H218.552z M207.261,362.292
		c2.471,0,4.654-0.579,6.55-1.738c1.896-1.158,3.266-2.638,4.109-4.438v-6.493h-6.924c-3.122,0-5.617,0.665-7.484,1.996
		c-1.868,1.332-2.801,2.984-2.801,4.957c0,1.686,0.579,3.06,1.738,4.122C203.607,361.761,205.211,362.292,207.261,362.292z"/>
	<path fill="#FFFFFF" d="M243.462,349.449c0-4.96,1.049-8.931,3.146-11.909c2.098-2.978,5.023-4.468,8.777-4.468
		c2.164,0,4.041,0.46,5.632,1.38c1.589,0.919,2.911,2.222,3.965,3.907v-18.445h3.419v44.82h-3.046l-0.287-4.511
		c-1.034,1.647-2.366,2.912-3.993,3.792c-1.629,0.881-3.544,1.322-5.747,1.322c-3.716,0-6.622-1.384-8.72-4.151
		c-2.097-2.768-3.146-6.479-3.146-11.134V349.449z M246.91,350.057c0,3.771,0.752,6.771,2.256,9.003
		c1.503,2.232,3.768,3.348,6.795,3.348c2.222,0,4.074-0.5,5.56-1.5c1.483-1.001,2.638-2.386,3.462-4.156v-14.659
		c-0.786-1.808-1.896-3.274-3.333-4.4c-1.437-1.125-3.314-1.688-5.632-1.688c-3.026,0-5.301,1.246-6.823,3.737
		s-2.284,5.729-2.284,9.71V350.057z"/>
	<path fill="#FFFFFF" d="M297.937,359.649c-0.996,1.819-2.338,3.223-4.022,4.209c-1.686,0.986-3.678,1.479-5.977,1.479
		c-3.275,0-5.842-1.11-7.699-3.333c-1.858-2.222-2.787-5.669-2.787-10.343v-18.015h3.447v18.108c0,3.8,0.646,6.525,1.939,8.176
		s3.127,2.476,5.502,2.476c2.604,0,4.684-0.586,6.234-1.756c1.552-1.171,2.634-2.783,3.247-4.837v-22.167h3.447v31.087h-3.045
		L297.937,359.649z"/>
	<path fill="#FFFFFF" d="M324.627,336.606l-2.558-0.172c-2.164,0-3.94,0.608-5.329,1.824c-1.389,1.217-2.38,2.888-2.974,5.014
		v21.462h-3.448v-31.087h3.018l0.431,5.172v0.345c0.9-1.915,2.106-3.409,3.62-4.482c1.513-1.072,3.313-1.609,5.401-1.609
		c0.44,0,0.866,0.034,1.278,0.101c0.412,0.067,0.752,0.14,1.021,0.216L324.627,336.606z"/>
	<path fill="#FFFFFF" d="M350.026,364.734c-0.23-1.053-0.394-1.963-0.489-2.729c-0.096-0.766-0.144-1.542-0.144-2.327
		c-1.149,1.628-2.682,2.979-4.597,4.051c-1.916,1.072-4.07,1.609-6.465,1.609c-3.026,0-5.377-0.805-7.053-2.413
		c-1.677-1.609-2.515-3.765-2.515-6.465c0-2.873,1.24-5.172,3.721-6.896s5.828-2.586,10.042-2.586h6.866v-3.85
		c0-2.222-0.714-3.965-2.141-5.229c-1.427-1.264-3.424-1.896-5.99-1.896c-2.395,0-4.381,0.604-5.961,1.811
		c-1.581,1.207-2.371,2.682-2.371,4.425l-3.16-0.029l-0.058-0.172c-0.114-2.317,0.943-4.392,3.175-6.221s5.071-2.744,8.519-2.744
		c3.429,0,6.187,0.872,8.275,2.615c2.087,1.743,3.131,4.242,3.131,7.499v15.284c0,1.092,0.062,2.155,0.188,3.189
		c0.124,1.034,0.33,2.06,0.617,3.074H350.026z M338.734,362.292c2.471,0,4.654-0.579,6.551-1.738
		c1.896-1.158,3.266-2.638,4.108-4.438v-6.493h-6.924c-3.122,0-5.617,0.665-7.484,1.996c-1.867,1.332-2.802,2.984-2.802,4.957
		c0,1.686,0.579,3.06,1.738,4.122C335.081,361.761,336.684,362.292,338.734,362.292z"/>
	<path fill="#FFFFFF" d="M367.379,325.688v7.959h6.838v2.815h-6.838v20.256c0,2.03,0.368,3.472,1.105,4.323
		c0.737,0.853,1.719,1.279,2.945,1.279c0.555,0,1.096-0.024,1.623-0.072c0.526-0.048,1.135-0.129,1.824-0.244l0.518,2.557
		c-0.575,0.249-1.274,0.44-2.098,0.575c-0.823,0.134-1.647,0.201-2.471,0.201c-2.184,0-3.884-0.689-5.1-2.068
		c-1.217-1.38-1.824-3.563-1.824-6.551v-20.256h-5.373v-2.815h5.373v-7.959H367.379z"/>
	<path fill="#FFFFFF" d="M385.365,324.741h-3.419v-4.827h3.419V324.741z M385.365,364.734h-3.419v-31.087h3.419V364.734z"/>
	<path fill="#FFFFFF" d="M392.95,348.731c0-4.578,1.255-8.332,3.764-11.263c2.51-2.931,5.833-4.396,9.97-4.396
		c4.156,0,7.489,1.466,9.999,4.396c2.509,2.931,3.764,6.685,3.764,11.263v0.948c0,4.597-1.25,8.355-3.75,11.276
		c-2.499,2.921-5.817,4.382-9.955,4.382c-4.176,0-7.518-1.461-10.027-4.382c-2.509-2.921-3.764-6.68-3.764-11.276V348.731z
		 M396.398,349.664c0,3.598,0.909,6.621,2.729,9.069c1.819,2.449,4.357,3.674,7.613,3.674c3.199,0,5.713-1.225,7.542-3.674
		c1.829-2.448,2.744-5.472,2.744-9.069v-0.947c0-3.539-0.92-6.543-2.759-9.011c-1.839-2.469-4.367-3.703-7.585-3.703
		s-5.736,1.234-7.556,3.703c-1.82,2.468-2.729,5.472-2.729,9.011V349.664z"/>
	<path fill="#FFFFFF" d="M430.673,333.647l0.316,5.43c0.995-1.915,2.341-3.395,4.036-4.438s3.701-1.566,6.02-1.566
		c3.371,0,5.938,1.03,7.7,3.089c1.762,2.06,2.643,5.272,2.643,9.64v18.934h-3.447v-18.942c0-3.57-0.666-6.094-1.997-7.572
		c-1.331-1.478-3.223-2.217-5.674-2.217c-2.414,0-4.382,0.639-5.904,1.915c-1.523,1.276-2.62,2.97-3.29,5.081v21.735h-3.448v-31.087
		H430.673z"/>
	<path fill="#FFFFFF" d="M472.764,348.731c0-4.578,1.255-8.332,3.764-11.263c2.51-2.931,5.833-4.396,9.97-4.396
		c4.156,0,7.489,1.466,9.999,4.396c2.509,2.931,3.764,6.685,3.764,11.263v0.948c0,4.597-1.25,8.355-3.75,11.276
		c-2.499,2.921-5.817,4.382-9.955,4.382c-4.176,0-7.518-1.461-10.027-4.382c-2.509-2.921-3.764-6.68-3.764-11.276V348.731z
		 M476.212,349.664c0,3.598,0.909,6.621,2.729,9.069c1.819,2.449,4.357,3.674,7.613,3.674c3.199,0,5.713-1.225,7.542-3.674
		c1.829-2.448,2.744-5.472,2.744-9.069v-0.947c0-3.539-0.92-6.543-2.759-9.011c-1.839-2.469-4.367-3.703-7.585-3.703
		s-5.736,1.234-7.556,3.703c-1.82,2.468-2.729,5.472-2.729,9.011V349.664z"/>
	<path fill="#FFFFFF" d="M509.943,364.734v-28.271H504.8v-2.815h5.143v-4.54c0-3.121,0.78-5.535,2.342-7.24
		c1.561-1.704,3.749-2.557,6.564-2.557c0.633,0,1.274,0.048,1.926,0.144c0.65,0.097,1.312,0.229,1.982,0.402l-0.432,2.845
		c-0.459-0.115-0.934-0.206-1.422-0.273c-0.488-0.066-1.059-0.101-1.71-0.101c-1.877,0-3.313,0.594-4.31,1.781
		c-0.996,1.188-1.493,2.854-1.493,4.999v4.54h7.412v2.815h-7.412v28.271H509.943z"/>
	<path fill="#FFFFFF" d="M530.6,338.417h-3.936v-4.712h3.936V338.417z M530.6,364.734h-3.936v-4.712h3.936V364.734z"/>
</g>
<g enable-background="new    ">
	<path fill="#FFFFFF" d="M118.626,421.869h6.55v2.931h-6.55v10.544h-3.419V424.8H95.583v-1.974l19.278-29.314h3.764V421.869z
		 M99.663,421.869h15.544v-23.847l-0.172-0.058l-1.465,3.132L99.663,421.869z"/>
	<path fill="#FFFFFF" d="M131.641,416.41l2.327-22.898h20.313v3.188h-17.382l-1.551,14.912c1.053-0.958,2.212-1.695,3.476-2.213
		c1.264-0.517,2.979-0.805,5.143-0.861c3.562-0.058,6.436,1.14,8.619,3.591c2.184,2.452,3.275,5.746,3.275,9.884
		c0,4.233-1.059,7.613-3.175,10.142c-2.117,2.528-5.301,3.793-9.553,3.793c-3.447,0-6.321-0.963-8.619-2.888s-3.4-4.773-3.304-8.548
		l0.058-0.172h3.074c0,2.807,0.8,4.954,2.399,6.443s3.73,2.233,6.393,2.233c3.103,0,5.425-0.937,6.967-2.812
		s2.313-4.591,2.313-8.149c0-3.117-0.771-5.618-2.313-7.502c-1.542-1.885-3.702-2.827-6.479-2.827c-2.682,0-4.727,0.427-6.134,1.278
		c-1.408,0.853-2.428,2.141-3.06,3.865L131.641,416.41z"/>
	<path fill="#FFFFFF" d="M166.262,404.257l0.316,5.143c0.996-1.819,2.322-3.228,3.979-4.224c1.656-0.995,3.634-1.494,5.933-1.494
		c2.375,0,4.362,0.575,5.962,1.725c1.599,1.149,2.744,2.901,3.433,5.258c0.938-2.184,2.274-3.894,4.008-5.129
		c1.733-1.235,3.845-1.854,6.335-1.854c3.313,0,5.871,1.103,7.671,3.305c1.8,2.203,2.701,5.612,2.701,10.229v18.129h-3.448v-18.223
		c0-3.839-0.675-6.55-2.025-8.133c-1.351-1.584-3.232-2.376-5.646-2.376c-2.663,0-4.722,0.835-6.177,2.505
		c-1.456,1.67-2.356,3.81-2.701,6.42c0,0.135,0.005,0.326,0.015,0.576c0.009,0.25,0.014,0.432,0.014,0.547v18.684h-3.477v-18.223
		c0-3.762-0.685-6.454-2.054-8.076c-1.37-1.621-3.251-2.433-5.646-2.433c-2.433,0-4.363,0.619-5.789,1.857
		c-1.427,1.238-2.428,2.903-3.002,4.995v21.879h-3.477v-31.087H166.262z"/>
	<path fill="#FFFFFF" d="M219.357,395.351h-3.419v-4.827h3.419V395.351z M219.357,435.344h-3.419v-31.087h3.419V435.344z"/>
	<path fill="#FFFFFF" d="M231.912,404.257l0.316,5.43c0.996-1.915,2.342-3.395,4.037-4.438s3.701-1.566,6.02-1.566
		c3.371,0,5.938,1.03,7.699,3.089c1.762,2.06,2.643,5.272,2.643,9.64v18.934h-3.447v-18.942c0-3.57-0.666-6.094-1.996-7.572
		c-1.332-1.478-3.223-2.217-5.674-2.217c-2.414,0-4.383,0.639-5.905,1.915s-2.619,2.97-3.29,5.081v21.735h-3.448v-31.087H231.912z"
		/>
</g>
<g enable-background="new    ">
	<path fill="#FFFFFF" d="M126.412,563.241h-11.837v35.368h-8.39v-35.368H94.406v-6.464h32.006V563.241z"/>
	<path fill="#FFFFFF" d="M138.594,571.459c0.977-1.418,2.174-2.523,3.591-3.319c1.417-0.794,2.988-1.192,4.712-1.192
		c3.237,0,5.779,1.078,7.628,3.232c1.849,2.155,2.773,5.483,2.773,9.984v18.445h-8.39v-18.545c0-2.419-0.426-4.133-1.278-5.141
		c-0.853-1.008-2.122-1.512-3.807-1.512c-1.149,0-2.165,0.207-3.045,0.619c-0.881,0.413-1.609,0.993-2.184,1.742v22.836h-8.39
		v-44.82h8.39V571.459z"/>
	<path fill="#FFFFFF" d="M172.439,560.081h-8.389v-6.292h8.389V560.081z M172.439,598.609h-8.389v-31.087h8.389V598.609z"/>
	<path fill="#FFFFFF" d="M196.142,590.048c0-0.92-0.445-1.714-1.336-2.385s-2.542-1.265-4.956-1.781
		c-3.678-0.747-6.45-1.854-8.317-3.318c-1.868-1.466-2.801-3.463-2.801-5.991c0-2.681,1.125-4.956,3.375-6.823
		s5.263-2.802,9.036-2.802c3.965,0,7.12,0.93,9.467,2.787c2.346,1.858,3.472,4.205,3.376,7.039l-0.058,0.173h-8.102
		c0-1.245-0.398-2.26-1.192-3.046c-0.795-0.785-1.958-1.178-3.491-1.178c-1.36,0-2.428,0.33-3.204,0.991s-1.164,1.489-1.164,2.485
		c0,0.958,0.407,1.743,1.221,2.355c0.814,0.613,2.466,1.159,4.956,1.638c3.831,0.767,6.675,1.893,8.533,3.376
		c1.857,1.485,2.787,3.529,2.787,6.135c0,2.797-1.197,5.08-3.591,6.852c-2.395,1.772-5.555,2.658-9.481,2.658
		c-4.138,0-7.408-1.049-9.812-3.146c-2.404-2.097-3.548-4.486-3.433-7.168l0.058-0.173h7.671c0.058,1.667,0.604,2.873,1.638,3.62
		s2.385,1.121,4.051,1.121c1.551,0,2.734-0.307,3.548-0.92C195.735,591.935,196.142,591.102,196.142,590.048z"/>
	<path fill="#FFFFFF" d="M253.919,563.241h-11.836v35.368h-8.39v-35.368h-11.779v-6.464h32.005V563.241z"/>
	<path fill="#FFFFFF" d="M273.342,598.609c-0.307-0.708-0.57-1.455-0.79-2.241c-0.221-0.785-0.378-1.59-0.474-2.413
		c-0.862,1.514-1.997,2.768-3.405,3.764c-1.407,0.996-3.088,1.494-5.042,1.494c-3.257,0-5.766-0.838-7.527-2.514
		c-1.763-1.677-2.644-3.96-2.644-6.853c0-3.046,1.173-5.406,3.52-7.082c2.347-1.677,5.771-2.515,10.271-2.515h4.684v-2.471
		c0-1.494-0.394-2.652-1.179-3.477c-0.785-0.823-1.944-1.235-3.477-1.235c-1.359,0-2.408,0.33-3.146,0.991s-1.106,1.576-1.106,2.744
		l-8.102-0.029l-0.029-0.172c-0.134-2.624,1.006-4.889,3.419-6.795c2.414-1.906,5.583-2.859,9.51-2.859
		c3.716,0,6.733,0.944,9.051,2.83c2.317,1.888,3.477,4.573,3.477,8.06v12.843c0,1.456,0.109,2.825,0.33,4.108
		c0.22,1.283,0.57,2.557,1.049,3.821H273.342z M265.671,593.007c1.475,0,2.787-0.363,3.937-1.092
		c1.148-0.728,1.925-1.57,2.327-2.528v-4.396h-4.684c-1.781,0-3.132,0.445-4.051,1.336c-0.92,0.891-1.379,1.968-1.379,3.232
		c0,1.034,0.345,1.867,1.034,2.499S264.484,593.007,265.671,593.007z"/>
	<path fill="#FFFFFF" d="M303.51,590.048c0-0.92-0.445-1.714-1.336-2.385s-2.543-1.265-4.956-1.781
		c-3.678-0.747-6.45-1.854-8.317-3.318c-1.868-1.466-2.802-3.463-2.802-5.991c0-2.681,1.125-4.956,3.376-6.823
		s5.263-2.802,9.036-2.802c3.965,0,7.12,0.93,9.467,2.787c2.346,1.858,3.472,4.205,3.376,7.039l-0.058,0.173h-8.102
		c0-1.245-0.398-2.26-1.192-3.046c-0.796-0.785-1.959-1.178-3.491-1.178c-1.36,0-2.428,0.33-3.203,0.991
		c-0.776,0.661-1.164,1.489-1.164,2.485c0,0.958,0.407,1.743,1.221,2.355c0.814,0.613,2.467,1.159,4.956,1.638
		c3.831,0.767,6.676,1.893,8.533,3.376c1.858,1.485,2.787,3.529,2.787,6.135c0,2.797-1.197,5.08-3.591,6.852
		c-2.395,1.772-5.556,2.658-9.481,2.658c-4.138,0-7.408-1.049-9.812-3.146c-2.404-2.097-3.549-4.486-3.434-7.168l0.058-0.173h7.671
		c0.058,1.667,0.604,2.873,1.638,3.62s2.385,1.121,4.051,1.121c1.552,0,2.734-0.307,3.549-0.92
		C303.103,591.935,303.51,591.102,303.51,590.048z"/>
	<path fill="#FFFFFF" d="M327.731,585.594h-2.299v13.016h-8.39v-44.82h8.39v25.427h2.068l7.212-11.693h9.711l-9.941,14.078
		l11.464,17.009h-9.625L327.731,585.594z"/>
	<path fill="#FFFFFF" d="M389.646,576.688h-25.743v-6.579h25.743V576.688z M389.646,589.07h-25.743v-6.579h25.743V589.07z"/>
	<path fill="#FFFFFF" d="M431.249,587.605c0-1.552-0.445-2.815-1.336-3.793c-0.891-0.977-2.419-1.886-4.583-2.729
		c-4.252-1.551-7.408-3.279-9.467-5.186c-2.06-1.905-3.089-4.592-3.089-8.059c0-3.219,1.029-5.856,3.089-7.916
		c2.059-2.059,4.831-3.271,8.317-3.635v-6.177h4.568v6.234c3.371,0.499,6.02,1.906,7.944,4.224c1.925,2.318,2.868,5.325,2.83,9.021
		l-0.086,0.144h-8.188c0-2.26-0.465-4.003-1.394-5.229c-0.93-1.226-2.198-1.839-3.807-1.839c-1.647,0-2.873,0.474-3.678,1.422
		s-1.207,2.208-1.207,3.778c0,1.494,0.426,2.706,1.278,3.635s2.418,1.844,4.698,2.743c4.232,1.667,7.369,3.448,9.409,5.345
		c2.04,1.896,3.06,4.549,3.06,7.958c0,3.333-1.024,5.995-3.074,7.987s-4.837,3.17-8.36,3.534v5.688h-4.568v-5.66
		c-3.582-0.364-6.541-1.633-8.878-3.807s-3.467-5.368-3.391-9.582l0.058-0.144h8.188c0,2.567,0.589,4.406,1.767,5.517
		c1.179,1.111,2.677,1.666,4.497,1.666c1.742,0,3.078-0.464,4.008-1.394C430.784,590.426,431.249,589.176,431.249,587.605z"/>
	<path fill="#FFFFFF" d="M453.659,574.131h4.712c1.991,0,3.466-0.522,4.424-1.566s1.437-2.494,1.437-4.353
		c0-1.686-0.479-3.035-1.437-4.051s-2.346-1.523-4.166-1.523c-1.57,0-2.892,0.46-3.965,1.38c-1.072,0.919-1.608,2.126-1.608,3.62
		h-8.131l-0.058-0.173c-0.115-3.275,1.14-5.976,3.764-8.103c2.624-2.126,5.88-3.188,9.769-3.188c4.329,0,7.781,1.034,10.357,3.103
		s3.864,5.019,3.864,8.85c0,1.819-0.574,3.548-1.724,5.186s-2.729,2.916-4.74,3.836c2.317,0.823,4.084,2.088,5.301,3.792
		c1.216,1.705,1.824,3.688,1.824,5.947c0,3.831-1.394,6.844-4.181,9.036c-2.787,2.193-6.354,3.29-10.702,3.29
		c-3.889,0-7.226-1.029-10.013-3.089c-2.787-2.059-4.133-4.966-4.037-8.72l0.058-0.173h8.131c0,1.602,0.575,2.921,1.725,3.959
		c1.148,1.039,2.604,1.558,4.366,1.558c1.935,0,3.463-0.534,4.583-1.604s1.681-2.522,1.681-4.357c0-2.197-0.551-3.808-1.652-4.83
		s-2.725-1.533-4.869-1.533h-4.712V574.131z"/>
</g>
<g>
	<path fill="#33CCFF" d="M159.224,69.15c-34.935,0-63.253,28.32-63.253,63.247c0,34.934,28.32,63.258,63.253,63.258
		s63.243-28.325,63.243-63.258C222.467,97.471,194.156,69.15,159.224,69.15z"/>
	<path fill="#FFFFFF" d="M175.148,177.305h-24.943c-1.513,0-2.731-1.22-2.731-2.733c0-1.506,1.219-2.727,2.731-2.727h24.943
		c1.51,0,2.737,1.221,2.737,2.727C177.886,176.084,176.658,177.305,175.148,177.305z M178.552,98.65v21.635
		c0,5.975-1.613,10.261-3.169,14.412c-1.836,4.888-3.733,8.508-2.864,16.021c0.214,1.822,2.185,12.598,2.813,15.443
		c0.17,0.772,0.373,2.561-2.18,2.561c-2.553,0-21.674,0-21.674,0s-2.725,0.205-1.943-3.385c0.35-1.582,1.024-6.616,1.363-10.006
		c1.174-11.89-3.229-15.698-7.354-19.823c-4.129-4.125-9.549-10.951-9.549-10.951l-0.043-0.047c-0.166-0.168-0.3-0.363-0.414-0.568
		c-0.504-0.544-0.814-1.271-0.814-2.076c0-1.699,1.371-3.064,3.061-3.064c0.926,0,1.754,0.409,2.32,1.055
		c0.094,0.071,0.188,0.143,0.273,0.228l5.029,5.032l0.145,0.126c0.113,0.076,0.715,0.468,1.453,0.468
		c0.668,0,2.207-0.335,2.207-3.34c0-3.337,0.082-29.379,0.082-29.688c0-0.055,0.012-0.107,0.019-0.159
		c0-0.033-0.012-0.057-0.012-0.083c0-1.216,0.987-2.203,2.198-2.203s2.196,0.986,2.196,2.203c0,0.071-0.014,0.142-0.021,0.207
		l0.007,0.036v16.459c0.124,1.322,0.876,2.119,2.28,2.119c1.494,0,2.17-1.013,2.287-2.334l0.002-21.406
		c0-0.159,0.031-0.307,0.072-0.456c0.199-1.004,1.078-1.761,2.137-1.761c1.205,0,2.186,0.977,2.186,2.182
		c0,0.029-0.011,0.046-0.011,0.071v21.478c0.052,1.453,0.75,2.225,2.182,2.225c1.476,0,2.196-0.636,2.38-2.163l0.012-16.145v-0.028
		c0-0.038-0.012-0.079-0.012-0.126c0-1.214,0.983-2.197,2.199-2.197c1.211,0,2.191,0.983,2.191,2.197v16.028
		c0.061,1.509,0.793,2.434,2.303,2.434c1.624,0,2.24-1.155,2.277-2.681v-9.93c0-0.019,0.002-0.031,0.002-0.05
		c0-0.038-0.01-0.071-0.01-0.112c0-1.209,0.986-2.186,2.194-2.186c1.211,0,2.199,0.977,2.199,2.186c0,0.036-0.011,0.069-0.011,0.1
		C178.545,98.612,178.552,98.629,178.552,98.65z"/>
</g>
<g>
	<path fill="#33CC33" d="M1476.443,650.188c0,19.268-15.621,34.885-34.887,34.885H1200.38c-19.268,0-34.887-15.617-34.887-34.885
		v-65.32c0-19.268,15.619-34.889,34.887-34.889h241.178c19.266,0,34.885,15.621,34.885,34.889V650.188L1476.443,650.188z"/>
	<g>
		<g enable-background="new    ">
			<path fill="#FFFFFF" d="M1256.025,628.688c0-2.429-0.909-4.413-2.729-5.954s-4.988-2.902-9.505-4.087
				c-4.886-1.227-8.585-2.82-11.101-4.783c-2.514-1.962-3.771-4.609-3.771-7.941c0-3.413,1.406-6.193,4.217-8.34
				s6.424-3.22,10.839-3.22c4.6,0,8.31,1.277,11.13,3.833c2.822,2.556,4.191,5.672,4.109,9.352l-0.092,0.185h-3.373
				c0-2.984-1.058-5.438-3.174-7.359c-2.115-1.921-4.982-2.882-8.601-2.882c-3.577,0-6.372,0.797-8.386,2.392
				c-2.014,1.594-3.021,3.577-3.021,5.948c0,2.249,0.931,4.124,2.79,5.626c1.86,1.503,5.07,2.827,9.629,3.972
				c4.803,1.226,8.457,2.882,10.961,4.967s3.756,4.835,3.756,8.248c0,3.557-1.456,6.389-4.369,8.493
				c-2.912,2.106-6.628,3.158-11.146,3.158c-4.456,0-8.345-1.119-11.667-3.357s-4.932-5.504-4.829-9.796l0.062-0.185h3.373
				c0,3.465,1.297,6.033,3.894,7.704c2.596,1.671,5.651,2.507,9.168,2.507c3.536,0,6.394-0.775,8.569-2.327
				C1254.937,633.29,1256.025,631.239,1256.025,628.688z"/>
			<path fill="#FFFFFF" d="M1298.156,598.135h-15.362v41.517h-3.679v-41.517h-15.362v-3.128h34.403V598.135z"/>
			<path fill="#FFFFFF" d="M1326.978,627.202h-20.451l-4.6,12.449h-3.803l16.957-44.645h3.465l16.833,44.645h-3.802
				L1326.978,627.202z M1307.752,623.922h18.03l-8.893-24.162h-0.184L1307.752,623.922z"/>
			<path fill="#FFFFFF" d="M1345.773,619.476v20.176h-3.648v-44.613h15.117c4.783,0,8.451,1.048,11.007,3.143
				c2.555,2.096,3.834,5.156,3.834,9.184c0,2.371-0.686,4.492-2.055,6.362c-1.371,1.87-3.302,3.234-5.796,4.094
				c2.76,0.694,4.747,1.937,5.964,3.725c1.217,1.789,1.824,4.032,1.824,6.73v4.201c0,1.391,0.164,2.637,0.49,3.74
				c0.328,1.104,0.869,2.004,1.625,2.698v0.736h-3.74c-0.756-0.736-1.287-1.768-1.594-3.097s-0.461-2.709-0.461-4.14v-4.078
				c0-2.739-0.884-4.9-2.651-6.485c-1.769-1.583-4.236-2.376-7.405-2.376H1345.773z M1345.773,616.348h11.008
				c4.027,0,6.971-0.812,8.831-2.438s2.791-3.817,2.791-6.577c0-2.943-0.926-5.207-2.775-6.791
				c-1.851-1.584-4.646-2.377-8.386-2.377h-11.469V616.348z"/>
			<path fill="#FFFFFF" d="M1411.023,598.135h-15.362v41.517h-3.68v-41.517h-15.361v-3.128h34.403V598.135z"/>
		</g>
	</g>
</g>
<g>
	<path fill="#CCCCCC" d="M1473.593,808.618c0,19.264-15.619,34.885-34.883,34.885h-241.178c-19.27,0-34.891-15.621-34.891-34.885
		v-65.324c0-19.268,15.621-34.885,34.891-34.885h241.178c19.264,0,34.883,15.617,34.883,34.885V808.618z"/>
	<g>
		<g enable-background="new    ">
			<path fill="#FFFFFF" d="M1241.86,798.079v-44.645h12.97c5.459,0,9.966,1.82,13.522,5.458c3.557,3.639,5.335,8.31,5.335,14.013
				v5.734c0,5.724-1.778,10.395-5.335,14.013s-8.063,5.427-13.522,5.427H1241.86z M1245.509,756.562v38.389h9.32
				c4.416,0,8.049-1.541,10.9-4.626c2.852-3.084,4.277-6.985,4.277-11.704v-5.82c0-4.657-1.431-8.527-4.293-11.611
				c-2.861-3.085-6.49-4.627-10.885-4.627H1245.509z"/>
			<path fill="#FFFFFF" d="M1315.664,779.406c0,5.764-1.579,10.425-4.737,13.981s-7.395,5.335-12.71,5.335
				c-5.232,0-9.408-1.778-12.525-5.335s-4.676-8.218-4.676-13.981v-7.268c0-5.743,1.554-10.404,4.661-13.981
				c3.106-3.577,7.276-5.366,12.511-5.366c5.314,0,9.555,1.789,12.725,5.366c3.168,3.577,4.752,8.238,4.752,13.981V779.406z
				 M1312.015,772.103c0-4.831-1.222-8.721-3.664-11.669c-2.443-2.949-5.832-4.423-10.164-4.423c-4.253,0-7.564,1.474-9.936,4.423
				c-2.371,2.948-3.557,6.838-3.557,11.669v7.34c0,4.872,1.191,8.782,3.572,11.731c2.381,2.948,5.697,4.422,9.949,4.422
				c4.354,0,7.742-1.469,10.165-4.407c2.423-2.938,3.634-6.854,3.634-11.746V772.103z"/>
			<path fill="#FFFFFF" d="M1358.192,798.079h-3.648l-25.358-38.389l-0.184,0.03v38.358h-3.68v-44.645h3.68l25.357,38.328
				l0.185-0.03v-38.298h3.648V798.079z"/>
			<path fill="#FFFFFF" d="M1395.047,776.462h-21.493v18.489h24.621v3.128h-28.271v-44.645h28.117v3.128h-24.468v16.772h21.493
				V776.462z"/>
		</g>
	</g>
</g>
</svg>
