<?xml version="1.0" encoding="utf-8"?>
<!-- Generator: Adobe Illustrator 16.0.0, SVG Export Plug-In . SVG Version: 6.00 Build 0)  -->
<!DOCTYPE svg PUBLIC "-//W3C//DTD SVG 1.1//EN" "http://www.w3.org/Graphics/SVG/1.1/DTD/svg11.dtd">
<svg version="1.1" id="Layer_1" xmlns="http://www.w3.org/2000/svg" xmlns:xlink="http://www.w3.org/1999/xlink" x="0px" y="0px"
	 width="521px" height="517px" viewBox="0 0 521 517" enable-background="new 0 0 521 517" xml:space="preserve">
<g>
	<g enable-background="new    ">
		<path fill="#989898" d="M144.259,263.64c0,7.64-1.653,13.519-4.958,17.636c-3.305,4.118-7.897,6.177-13.775,6.177
			c-5.852,0-10.45-2.065-13.796-6.197c-3.346-4.131-5.018-10.002-5.018-17.615v-13.206c0-7.612,1.652-13.49,4.958-17.636
			c3.305-4.145,7.896-6.217,13.775-6.217c5.878,0,10.484,2.072,13.816,6.217c3.332,4.146,4.998,10.023,4.998,17.636V263.64z
			 M139.382,249.606c0-6.063-1.192-10.726-3.576-13.988c-2.384-3.261-5.838-4.893-10.362-4.893c-4.524,0-7.964,1.632-10.321,4.893
			c-2.357,3.263-3.535,7.925-3.535,13.988v14.739c0,6.009,1.199,10.672,3.596,13.987c2.397,3.316,5.844,4.975,10.342,4.975
			c4.496,0,7.93-1.651,10.301-4.954c2.37-3.302,3.555-7.972,3.555-14.008V249.606z"/>
		<path fill="#989898" d="M192.777,263.64c0,7.64-1.653,13.519-4.958,17.636c-3.305,4.118-7.897,6.177-13.775,6.177
			c-5.852,0-10.45-2.065-13.796-6.197c-3.346-4.131-5.018-10.002-5.018-17.615v-13.206c0-7.612,1.652-13.49,4.958-17.636
			c3.305-4.145,7.896-6.217,13.775-6.217c5.878,0,10.484,2.072,13.816,6.217c3.332,4.146,4.998,10.023,4.998,17.636V263.64z
			 M187.9,249.606c0-6.063-1.192-10.726-3.576-13.988c-2.384-3.261-5.838-4.893-10.362-4.893c-4.524,0-7.964,1.632-10.321,4.893
			c-2.357,3.263-3.535,7.925-3.535,13.988v14.739c0,6.009,1.199,10.672,3.596,13.987c2.397,3.316,5.844,4.975,10.342,4.975
			c4.496,0,7.93-1.651,10.301-4.954c2.37-3.302,3.555-7.972,3.555-14.008V249.606z"/>
		<path fill="#989898" d="M210.087,249.377h-5.567v-6.664h5.567V249.377z M210.087,286.599h-5.567v-6.664h5.567V286.599z"/>
		<path fill="#989898" d="M251.291,267.541h9.264v4.145h-9.264v14.913h-4.836v-14.913h-27.753v-2.79l27.265-41.461h5.324V267.541z
			 M224.472,267.541h21.983v-33.727l-0.244-0.082l-2.072,4.43L224.472,267.541z"/>
		<path fill="#989898" d="M269.698,259.82l3.292-32.386h28.729v4.511h-24.584l-2.194,21.089c1.489-1.354,3.129-2.397,4.917-3.129
			s4.212-1.138,7.273-1.219c5.039-0.081,9.103,1.612,12.19,5.079c3.088,3.468,4.632,8.127,4.632,13.979
			c0,5.987-1.497,10.769-4.489,14.344c-2.994,3.576-7.497,5.364-13.512,5.364c-4.876,0-8.939-1.361-12.19-4.084
			s-4.809-6.752-4.673-12.089l0.081-0.244h4.349c0,3.97,1.131,7.008,3.393,9.113c2.262,2.106,5.275,3.159,9.041,3.159
			c4.389,0,7.673-1.325,9.854-3.977c2.18-2.651,3.271-6.493,3.271-11.525c0-4.409-1.091-7.946-3.271-10.611
			c-2.182-2.665-5.236-3.997-9.163-3.997c-3.793,0-6.685,0.603-8.676,1.808c-1.991,1.206-3.434,3.027-4.328,5.466L269.698,259.82z"
			/>
		<path fill="#989898" d="M319.963,249.377h-5.566v-6.664h5.566V249.377z M319.963,286.599h-5.566v-6.664h5.566V286.599z"/>
		<path fill="#989898" d="M368.807,263.64c0,7.64-1.652,13.519-4.957,17.636c-3.306,4.118-7.897,6.177-13.775,6.177
			c-5.852,0-10.45-2.065-13.796-6.197c-3.346-4.131-5.019-10.002-5.019-17.615v-13.206c0-7.612,1.652-13.49,4.958-17.636
			c3.305-4.145,7.896-6.217,13.775-6.217c5.878,0,10.483,2.072,13.815,6.217c3.332,4.146,4.998,10.023,4.998,17.636V263.64z
			 M363.931,249.606c0-6.063-1.192-10.726-3.576-13.988c-2.384-3.261-5.838-4.893-10.361-4.893c-4.524,0-7.965,1.632-10.321,4.893
			c-2.357,3.263-3.535,7.925-3.535,13.988v14.739c0,6.009,1.198,10.672,3.596,13.987c2.397,3.316,5.845,4.975,10.342,4.975
			c4.496,0,7.93-1.651,10.301-4.954c2.37-3.302,3.556-7.972,3.556-14.008V249.606z"/>
		<path fill="#989898" d="M417.324,263.64c0,7.64-1.652,13.519-4.957,17.636c-3.306,4.118-7.897,6.177-13.775,6.177
			c-5.852,0-10.45-2.065-13.796-6.197c-3.346-4.131-5.019-10.002-5.019-17.615v-13.206c0-7.612,1.652-13.49,4.958-17.636
			c3.305-4.145,7.896-6.217,13.775-6.217c5.878,0,10.483,2.072,13.815,6.217c3.332,4.146,4.998,10.023,4.998,17.636V263.64z
			 M412.448,249.606c0-6.063-1.192-10.726-3.576-13.988c-2.384-3.261-5.838-4.893-10.361-4.893c-4.524,0-7.965,1.632-10.321,4.893
			c-2.357,3.263-3.535,7.925-3.535,13.988v14.739c0,6.009,1.198,10.672,3.596,13.987c2.397,3.316,5.845,4.975,10.342,4.975
			c4.496,0,7.93-1.651,10.301-4.954c2.37-3.302,3.556-7.972,3.556-14.008V249.606z"/>
	</g>
	<path opacity="0.4" fill="#CCCBCB" enable-background="new    " d="M259.451,509.97c-139.218,0-252.479-113.264-252.479-252.483
		c0-139.218,113.261-252.481,252.479-252.481c139.22,0,252.483,113.264,252.483,252.481
		C511.935,396.706,398.671,509.97,259.451,509.97z M259.451,74.689c-100.793,0-182.794,82.002-182.794,182.797
		c0,100.795,82,182.799,182.794,182.799c100.796,0,182.798-82.004,182.798-182.799C442.249,156.691,360.247,74.689,259.451,74.689z"
		/>
	<path fill="none" stroke="#F16622" stroke-miterlimit="10" d="M24.077,257.08"/>
	<path fill="none" stroke="#F16622" stroke-miterlimit="10" d="M61.874,257.08"/>
	<path fill="#FF6666" d="M259.451,509.97c-139.218,0-252.479-113.264-252.479-252.483c0-139.218,113.261-252.481,252.479-252.481
		v69.685c-100.793,0-182.794,82.002-182.794,182.797c0,100.795,82,182.799,182.794,182.799V509.97z"/>
	<path fill="#FF6666" d="M442.249,257.486c0,0.132-0.004,0.262-0.004,0.394h69.684c0-0.132,0.006-0.262,0.006-0.394
		c0-139.218-113.264-252.481-252.483-252.481V74.69C360.247,74.689,442.249,156.691,442.249,257.486z"/>
</g>
</svg>
