<?xml version="1.0" encoding="utf-8"?>
<!-- Generator: Adobe Illustrator 16.0.0, SVG Export Plug-In . SVG Version: 6.00 Build 0)  -->
<!DOCTYPE svg PUBLIC "-//W3C//DTD SVG 1.1//EN" "http://www.w3.org/Graphics/SVG/1.1/DTD/svg11.dtd">
<svg version="1.1" id="Layer_1" xmlns="http://www.w3.org/2000/svg" xmlns:xlink="http://www.w3.org/1999/xlink" x="0px" y="0px"
	 width="285px" height="285px" viewBox="0 0 285 285" enable-background="new 0 0 285 285" xml:space="preserve">
<g opacity="0.8">
	<path fill="#CCFFFF" d="M284.766,245c0,22-18,40-40,40h-205c-22,0-40-18-40-40V40c0-22,18-40,40-40h205c22,0,40,18,40,40V245z"/>
</g>
<g>
	<text transform="matrix(1 0 0 1 96.8452 243.4834)" fill="#231F20" font-family="'Roboto-Light'" font-size="18">CALENDAR</text>
</g>
<g>
	<path fill="#FFFFFF" d="M167.482,135.778c0,5.935-4.831,10.764-10.762,10.764h-32.937c-5.937,0-10.766-4.829-10.766-10.764V99.92
		c0-5.938,4.829-10.769,10.766-10.769h2.275v-2.855c0-1.581,1.284-2.867,2.868-2.867c1.582,0,2.859,1.286,2.859,2.867v2.855h16.925
		v-2.855c0-1.581,1.284-2.867,2.868-2.867c1.581,0,2.859,1.286,2.859,2.867v2.855h2.281c5.931,0,10.762,4.83,10.762,10.769V135.778z
		"/>
	<g>
		<path fill="#066899" d="M140.248,65.263c-28.533,0-51.669,23.131-51.669,51.668c0,28.541,23.137,51.679,51.669,51.679
			c28.541,0,51.678-23.138,51.678-51.679C191.926,88.394,168.789,65.263,140.248,65.263z M167.482,135.778
			c0,5.935-4.831,10.764-10.762,10.764h-32.937c-5.937,0-10.766-4.829-10.766-10.764V99.92c0-5.938,4.829-10.769,10.766-10.769
			h2.275v-2.855c0-1.581,1.284-2.867,2.868-2.867c1.582,0,2.859,1.286,2.859,2.867v2.855h16.925v-2.855
			c0-1.581,1.284-2.867,2.868-2.867c1.581,0,2.859,1.286,2.859,2.867v2.855h2.281c5.931,0,10.762,4.83,10.762,10.769V135.778z"/>
		<path fill="#066899" d="M131.963,135.057c0,0.873-0.703,1.579-1.58,1.579h-6.25c-0.877,0-1.585-0.706-1.585-1.579V128.8
			c0-0.875,0.708-1.58,1.585-1.58h6.25c0.877,0,1.58,0.705,1.58,1.58V135.057z M131.963,122.437c0,0.877-0.703,1.584-1.58,1.584
			h-6.25c-0.877,0-1.585-0.707-1.585-1.584v-6.248c0-0.877,0.708-1.59,1.585-1.59h6.25c0.877,0,1.58,0.713,1.58,1.59V122.437z
			 M131.963,109.82c0,0.878-0.703,1.585-1.58,1.585h-6.25c-0.877,0-1.585-0.707-1.585-1.585v-6.251c0-0.873,0.708-1.58,1.585-1.58
			h6.25c0.877,0,1.58,0.707,1.58,1.58V109.82z M144.957,135.057c0,0.873-0.702,1.579-1.579,1.579h-6.253
			c-0.875,0-1.583-0.706-1.583-1.579V128.8c0-0.875,0.708-1.58,1.583-1.58h6.253c0.877,0,1.579,0.705,1.579,1.58V135.057z
			 M144.957,122.437c0,0.877-0.702,1.584-1.579,1.584h-6.253c-0.875,0-1.583-0.707-1.583-1.584v-6.248
			c0-0.877,0.708-1.59,1.583-1.59h6.253c0.877,0,1.579,0.713,1.579,1.59V122.437z M144.957,109.82c0,0.878-0.702,1.585-1.579,1.585
			h-6.253c-0.875,0-1.583-0.707-1.583-1.585v-6.251c0-0.873,0.708-1.58,1.583-1.58h6.253c0.877,0,1.579,0.707,1.579,1.58V109.82z
			 M157.951,135.057c0,0.873-0.701,1.579-1.582,1.579h-6.254c-0.871,0-1.58-0.706-1.58-1.579V128.8c0-0.875,0.709-1.58,1.58-1.58
			h6.254c0.881,0,1.582,0.705,1.582,1.58V135.057z M157.951,122.437c0,0.877-0.701,1.584-1.582,1.584h-6.254
			c-0.871,0-1.58-0.707-1.58-1.584v-6.248c0-0.877,0.709-1.59,1.58-1.59h6.254c0.881,0,1.582,0.713,1.582,1.59V122.437z
			 M157.951,109.82c0,0.878-0.701,1.585-1.582,1.585h-6.254c-0.871,0-1.58-0.707-1.58-1.585v-6.251c0-0.873,0.709-1.58,1.58-1.58
			h6.254c0.881,0,1.582,0.707,1.582,1.58V109.82z"/>
	</g>
</g>
</svg>
