<?xml version="1.0" encoding="utf-8"?>
<!-- Generator: Adobe Illustrator 16.0.0, SVG Export Plug-In . SVG Version: 6.00 Build 0)  -->
<!DOCTYPE svg PUBLIC "-//W3C//DTD SVG 1.1//EN" "http://www.w3.org/Graphics/SVG/1.1/DTD/svg11.dtd">
<svg version="1.1" id="Layer_1" xmlns="http://www.w3.org/2000/svg" xmlns:xlink="http://www.w3.org/1999/xlink" x="0px" y="0px"
	 width="285px" height="285px" viewBox="0 0 285 285" enable-background="new 0 0 285 285" xml:space="preserve">
<g opacity="0.8">
	<path fill="#CCFFFF" d="M285.236,245c0,22-18,40-40,40h-205c-22,0-40-18-40-40V40c0-22,18-40,40-40h205c22,0,40,18,40,40V245z"/>
</g>
<g>
	<text transform="matrix(1 0 0 1 104.978 243.4697)" fill="#231F20" font-family="'Roboto-Light'" font-size="18">REWARDS</text>
</g>
<g>
	<path fill="#FFFFFF" d="M168.244,113.189c-2.961,1.668-4.225,5.559-2.811,8.641c1.408,3.072-0.174,5.262-3.512,4.908l6.133,14.885
		c1.07,2.482-0.115,3.7-2.625,2.695l-3.061-1.223c-2.518-1.005-5.393,0.23-6.396,2.74l-1.225,3.06
		c-1.002,2.515-2.693,2.534-3.764,0.051l-6.316-15.333c-0.143-0.332-0.293-0.703-0.447-1.098c-0.156,0.395-0.309,0.766-0.455,1.098
		l-6.781,15.258c-1.066,2.488-2.76,2.463-3.762-0.049l-1.229-3.055c-1-2.515-3.877-3.747-6.393-2.744l-3.055,1.223
		c-2.515,1.002-3.7-0.209-2.629-2.693l6.579-14.814c-3.322,0.346-4.894-1.842-3.493-4.908c1.414-3.082,0.148-6.973-2.811-8.641
		c-2.957-1.661-2.957-4.391,0-6.057c2.959-1.666,4.225-5.555,2.811-8.641c-1.412-3.087,0.189-5.291,3.561-4.904
		c3.373,0.391,6.682-2.006,7.348-5.339c0.669-3.325,3.266-4.171,5.762-1.868c2.499,2.298,6.594,2.298,9.084,0
		c2.506-2.303,5.094-1.457,5.768,1.868c0.668,3.333,3.971,5.729,7.346,5.339c3.375-0.387,4.979,1.817,3.562,4.904
		c-1.414,3.086-0.15,6.975,2.811,8.641C171.199,108.799,171.199,111.528,168.244,113.189z"/>
	<g>
		<path fill="#F7981F" d="M144.221,126.184c8.848,0,16.021-7.17,16.021-16.021c0-8.846-7.174-16.023-16.021-16.023
			c-8.852,0-16.027,7.178-16.027,16.023C128.193,119.014,135.369,126.184,144.221,126.184z"/>
		<path fill="#F7981F" d="M144.221,64.65c-28.928,0-52.38,23.447-52.38,52.372c0,28.929,23.452,52.38,52.38,52.38
			c28.924,0,52.375-23.451,52.375-52.38C196.596,88.098,173.145,64.65,144.221,64.65z M168.244,113.189
			c-2.961,1.668-4.225,5.559-2.811,8.641c1.408,3.072-0.174,5.262-3.512,4.908l6.133,14.885c1.07,2.482-0.115,3.7-2.625,2.695
			l-3.061-1.223c-2.518-1.005-5.393,0.23-6.396,2.74l-1.225,3.06c-1.002,2.515-2.693,2.534-3.764,0.051l-6.316-15.333
			c-0.143-0.332-0.293-0.703-0.447-1.098c-0.156,0.395-0.309,0.766-0.455,1.098l-6.781,15.258c-1.066,2.488-2.76,2.463-3.762-0.049
			l-1.229-3.055c-1-2.515-3.877-3.747-6.393-2.744l-3.055,1.223c-2.515,1.002-3.7-0.209-2.629-2.693l6.579-14.814
			c-3.322,0.346-4.894-1.842-3.493-4.908c1.414-3.082,0.148-6.973-2.811-8.641c-2.957-1.661-2.957-4.391,0-6.057
			c2.959-1.666,4.225-5.555,2.811-8.641c-1.412-3.087,0.189-5.291,3.561-4.904c3.373,0.391,6.682-2.006,7.348-5.339
			c0.669-3.325,3.266-4.171,5.762-1.868c2.499,2.298,6.594,2.298,9.084,0c2.506-2.303,5.094-1.457,5.768,1.868
			c0.668,3.333,3.971,5.729,7.346,5.339c3.375-0.387,4.979,1.817,3.562,4.904c-1.414,3.086-0.15,6.975,2.811,8.641
			C171.199,108.799,171.199,111.528,168.244,113.189z"/>
	</g>
	<path fill="#FFFFFF" d="M133.82,106.974c0.117-0.364,0.547-1.212,1.963-1.212l4.809-0.012c0.113-0.002,0.34-0.162,0.373-0.266
		l1.496-4.573c0.438-1.35,1.369-1.494,1.76-1.494c0.378,0,1.317,0.145,1.754,1.494l1.498,4.573c0.037,0.104,0.26,0.264,0.369,0.266
		l4.812,0.012c1.416,0,1.844,0.848,1.959,1.212c0.125,0.362,0.271,1.296-0.875,2.13l-3.885,2.834
		c-0.088,0.07-0.172,0.334-0.143,0.443l1.477,4.576c0.303,0.932,0.062,1.536-0.189,1.885c-0.301,0.426-0.789,0.666-1.326,0.666
		c-0.438,0-0.885-0.161-1.33-0.486l-3.896-2.82c-0.022-0.014-0.109-0.048-0.226-0.048c-0.126,0-0.211,0.034-0.235,0.048l-3.897,2.82
		c-0.445,0.322-0.893,0.486-1.322,0.486c-0.539,0-1.022-0.24-1.334-0.666c-0.25-0.349-0.488-0.953-0.186-1.885l1.475-4.576
		c0.039-0.109-0.053-0.373-0.139-0.443l-3.887-2.834C133.548,108.27,133.703,107.336,133.82,106.974z"/>
	<path fill="#FFFFFF" d="M133.82,106.974c0.117-0.364,0.547-1.212,1.963-1.212l4.809-0.012c0.113-0.002,0.34-0.162,0.373-0.266
		l1.496-4.573c0.438-1.35,1.369-1.494,1.76-1.494c0.378,0,1.317,0.145,1.754,1.494l1.498,4.573c0.037,0.104,0.26,0.264,0.369,0.266
		l4.812,0.012c1.416,0,1.844,0.848,1.959,1.212c0.125,0.362,0.271,1.296-0.875,2.13l-3.885,2.834
		c-0.088,0.07-0.172,0.334-0.143,0.443l1.477,4.576c0.303,0.932,0.062,1.536-0.189,1.885c-0.301,0.426-0.789,0.666-1.326,0.666
		c-0.438,0-0.885-0.161-1.33-0.486l-3.896-2.82c-0.022-0.014-0.109-0.048-0.226-0.048c-0.126,0-0.211,0.034-0.235,0.048l-3.897,2.82
		c-0.445,0.322-0.893,0.486-1.322,0.486c-0.539,0-1.022-0.24-1.334-0.666c-0.25-0.349-0.488-0.953-0.186-1.885l1.475-4.576
		c0.039-0.109-0.053-0.373-0.139-0.443l-3.887-2.834C133.548,108.27,133.703,107.336,133.82,106.974z"/>
</g>
</svg>
