<?xml version="1.0" encoding="utf-8"?>
<!-- Generator: Adobe Illustrator 16.0.0, SVG Export Plug-In . SVG Version: 6.00 Build 0)  -->
<!DOCTYPE svg PUBLIC "-//W3C//DTD SVG 1.1//EN" "http://www.w3.org/Graphics/SVG/1.1/DTD/svg11.dtd">
<svg version="1.1" id="Layer_1" xmlns="http://www.w3.org/2000/svg" xmlns:xlink="http://www.w3.org/1999/xlink" x="0px" y="0px"
	 width="285px" height="285px" viewBox="0 0 285 285" enable-background="new 0 0 285 285" xml:space="preserve">
<g opacity="0.8">
	<path fill="#CCFFFF" d="M284.752,245c0,22-18,40-40,40h-205c-22,0-40-18-40-40V40c0-22,18-40,40-40h205c22,0,40,18,40,40V245z"/>
</g>
<g>
	<g>
		<g>
			<path fill="#33C5F3" d="M106.393,232.023c0,10.334-8.375,18.713-18.709,18.713c-10.334,0-18.711-8.379-18.711-18.713
				c0-10.332,8.377-18.711,18.711-18.711C98.017,213.312,106.393,221.691,106.393,232.023z"/>
		</g>
		<g>
			<path fill="#FFFFFF" d="M93.402,221.992c0-0.357-0.292-0.646-0.651-0.646c-0.356,0-0.649,0.289-0.649,0.646
				c0,0.014,0.003,0.023,0.003,0.033c0,0.006-0.001,0.01-0.001,0.016v2.938c-0.011,0.453-0.193,0.791-0.673,0.791
				c-0.447,0-0.664-0.271-0.681-0.719v-4.695c0-0.01,0-0.016,0-0.025c0-0.006,0-0.014,0-0.02c0-0.361-0.29-0.652-0.649-0.652
				c-0.359,0-0.65,0.291-0.65,0.652c0,0.014,0.003,0.025,0.003,0.035c0,0,0,0.006,0,0.01l-0.003,4.775
				c-0.055,0.451-0.267,0.639-0.704,0.639c-0.424,0-0.63-0.227-0.646-0.656v-6.354c0-0.008,0.003-0.012,0.003-0.021
				c0-0.355-0.29-0.645-0.646-0.645c-0.314,0-0.573,0.223-0.632,0.52c-0.012,0.043-0.021,0.088-0.021,0.135l-0.001,6.332
				c-0.035,0.393-0.235,0.689-0.677,0.689c-0.415,0-0.638-0.234-0.674-0.625v-0.029v-4.842l-0.001-0.01
				c0.001-0.02,0.006-0.041,0.006-0.061c0-0.359-0.292-0.652-0.65-0.652c-0.358,0-0.65,0.293-0.65,0.652
				c0,0.008,0.004,0.016,0.004,0.023c-0.002,0.016-0.005,0.033-0.005,0.047c0,0.092-0.024,7.797-0.024,8.783
				c0,0.889-0.456,0.988-0.653,0.988c-0.219,0-0.397-0.115-0.43-0.139l-0.043-0.037l-1.488-1.488
				c-0.025-0.025-0.053-0.047-0.081-0.068C81.27,228.121,81.025,228,80.75,228c-0.5,0-0.906,0.404-0.906,0.908
				c0,0.238,0.093,0.453,0.241,0.613c0.035,0.062,0.074,0.119,0.123,0.168l0.013,0.014c0,0,1.604,2.02,2.824,3.24
				c1.22,1.221,2.523,2.346,2.177,5.863c-0.101,1.004-0.302,2.494-0.404,2.961c-0.231,1.061,0.575,1.002,0.575,1.002
				s5.657,0,6.412,0c0.754,0,0.695-0.529,0.645-0.758c-0.187-0.842-0.769-4.029-0.833-4.568c-0.257-2.223,0.303-3.293,0.847-4.74
				c0.46-1.227,0.938-2.494,0.938-4.262v-6.4c0-0.008-0.002-0.012-0.002-0.018C93.399,222.014,93.402,222.004,93.402,221.992z"/>
			<path fill="#FFFFFF" d="M92.395,243.693h-7.379c-0.447,0-0.808,0.361-0.808,0.807c0,0.447,0.36,0.807,0.808,0.807h7.379
				c0.446,0,0.809-0.359,0.809-0.807C93.204,244.055,92.841,243.693,92.395,243.693z"/>
		</g>
	</g>
</g>
<g>
	<g>
		<g>
			<path fill="#33C5F3" d="M161.157,232.023c0,10.334-8.376,18.713-18.709,18.713c-10.335,0-18.712-8.379-18.712-18.713
				c0-10.332,8.377-18.711,18.712-18.711C152.781,213.312,161.157,221.691,161.157,232.023z"/>
		</g>
		<g>
			<path fill="#FFFFFF" d="M148.166,221.992c0-0.357-0.293-0.646-0.65-0.646s-0.649,0.289-0.649,0.646
				c0,0.014,0.004,0.023,0.004,0.033c0,0.006-0.002,0.01-0.002,0.016v2.938c-0.011,0.453-0.193,0.791-0.674,0.791
				c-0.446,0-0.663-0.271-0.681-0.719v-4.695c0-0.01,0-0.016,0-0.025c0-0.006,0-0.014,0-0.02c0-0.361-0.29-0.652-0.648-0.652
				c-0.36,0-0.65,0.291-0.65,0.652c0,0.014,0.003,0.025,0.003,0.035c0,0,0,0.006,0,0.01l-0.003,4.775
				c-0.054,0.451-0.268,0.639-0.704,0.639c-0.423,0-0.63-0.227-0.645-0.656v-6.354c0-0.008,0.002-0.012,0.002-0.021
				c0-0.355-0.291-0.645-0.646-0.645c-0.312,0-0.573,0.223-0.631,0.52c-0.013,0.043-0.022,0.088-0.022,0.135v6.332
				c-0.036,0.393-0.235,0.689-0.677,0.689c-0.414,0-0.639-0.234-0.674-0.625v-0.029v-4.842l-0.002-0.01
				c0.002-0.02,0.006-0.041,0.006-0.061c0-0.359-0.292-0.652-0.649-0.652c-0.358,0-0.652,0.293-0.652,0.652
				c0,0.008,0.004,0.016,0.004,0.023c-0.002,0.016-0.005,0.033-0.005,0.047c0,0.092-0.023,7.797-0.023,8.783
				c0,0.889-0.456,0.988-0.653,0.988c-0.218,0-0.396-0.115-0.43-0.139l-0.042-0.037l-1.489-1.488
				c-0.025-0.025-0.053-0.047-0.081-0.068c-0.167-0.191-0.413-0.312-0.686-0.312c-0.5,0-0.906,0.404-0.906,0.908
				c0,0.238,0.092,0.453,0.241,0.613c0.034,0.062,0.073,0.119,0.122,0.168l0.013,0.014c0,0,1.604,2.02,2.824,3.24
				c1.221,1.221,2.523,2.346,2.177,5.863c-0.1,1.004-0.301,2.494-0.404,2.961c-0.23,1.061,0.575,1.002,0.575,1.002s5.656,0,6.413,0
				c0.755,0,0.694-0.529,0.645-0.758c-0.187-0.842-0.771-4.029-0.833-4.568c-0.256-2.223,0.304-3.293,0.848-4.74
				c0.461-1.227,0.938-2.494,0.938-4.262v-6.4c0-0.008-0.003-0.012-0.003-0.018C148.162,222.014,148.166,222.004,148.166,221.992z"
				/>
			<path fill="#FFFFFF" d="M147.158,243.693h-7.379c-0.447,0-0.808,0.361-0.808,0.807c0,0.447,0.36,0.807,0.808,0.807h7.379
				c0.445,0,0.811-0.359,0.811-0.807C147.969,244.055,147.604,243.693,147.158,243.693z"/>
		</g>
	</g>
</g>
<g opacity="0.1">
	<g>
		<g>
			<path fill="#F06667" d="M215.791,232.023c0,10.334-8.377,18.713-18.709,18.713c-10.336,0-18.713-8.379-18.713-18.713
				c0-10.332,8.377-18.711,18.713-18.711C207.414,213.312,215.791,221.691,215.791,232.023z"/>
		</g>
		<g>
			<path fill="#FFFFFF" d="M202.799,221.992c0-0.357-0.293-0.646-0.65-0.646s-0.648,0.289-0.648,0.646
				c0,0.014,0.004,0.023,0.004,0.033c0,0.006-0.002,0.01-0.002,0.016v2.938c-0.012,0.453-0.193,0.791-0.674,0.791
				c-0.447,0-0.664-0.271-0.682-0.719v-4.695c0-0.01,0-0.016,0-0.025c0-0.006,0-0.014,0-0.02c0-0.361-0.289-0.652-0.648-0.652
				s-0.65,0.291-0.65,0.652c0,0.014,0.004,0.025,0.004,0.035c0,0,0,0.006,0,0.01l-0.004,4.775c-0.053,0.451-0.268,0.639-0.703,0.639
				c-0.424,0-0.631-0.227-0.646-0.656v-6.354c0-0.008,0.002-0.012,0.002-0.021c0-0.355-0.29-0.645-0.646-0.645
				c-0.312,0-0.573,0.223-0.632,0.52c-0.012,0.043-0.021,0.088-0.021,0.135v6.332c-0.035,0.393-0.235,0.689-0.677,0.689
				c-0.413,0-0.639-0.234-0.675-0.625v-0.029v-4.842l-0.002-0.01c0.002-0.02,0.007-0.041,0.007-0.061
				c0-0.359-0.292-0.652-0.649-0.652c-0.358,0-0.652,0.293-0.652,0.652c0,0.008,0.004,0.016,0.004,0.023
				c-0.002,0.016-0.005,0.033-0.005,0.047c0,0.092-0.023,7.797-0.023,8.783c0,0.889-0.456,0.988-0.653,0.988
				c-0.218,0-0.396-0.115-0.43-0.139l-0.042-0.037l-1.489-1.488c-0.025-0.025-0.053-0.047-0.08-0.068
				c-0.168-0.191-0.413-0.312-0.686-0.312c-0.501,0-0.906,0.404-0.906,0.908c0,0.238,0.092,0.453,0.24,0.613
				c0.034,0.062,0.073,0.119,0.123,0.168l0.013,0.014c0,0,1.604,2.02,2.823,3.24c1.221,1.221,2.523,2.346,2.178,5.863
				c-0.101,1.004-0.301,2.494-0.404,2.961c-0.23,1.061,0.574,1.002,0.574,1.002s5.656,0,6.412,0s0.695-0.529,0.645-0.758
				c-0.186-0.842-0.77-4.029-0.832-4.568c-0.256-2.223,0.303-3.293,0.848-4.74c0.461-1.227,0.938-2.494,0.938-4.262v-6.4
				c0-0.008-0.004-0.012-0.004-0.018C202.795,222.014,202.799,222.004,202.799,221.992z"/>
			<path fill="#FFFFFF" d="M201.791,243.693h-7.379c-0.447,0-0.807,0.361-0.807,0.807c0,0.447,0.359,0.807,0.807,0.807h7.379
				c0.445,0,0.811-0.359,0.811-0.807C202.602,244.055,202.236,243.693,201.791,243.693z"/>
		</g>
	</g>
</g>
</svg>
