<?xml version="1.0" encoding="utf-8"?>
<!-- Generator: Adobe Illustrator 16.0.0, SVG Export Plug-In . SVG Version: 6.00 Build 0)  -->
<!DOCTYPE svg PUBLIC "-//W3C//DTD SVG 1.1//EN" "http://www.w3.org/Graphics/SVG/1.1/DTD/svg11.dtd">
<svg version="1.1" id="Layer_1" xmlns="http://www.w3.org/2000/svg" xmlns:xlink="http://www.w3.org/1999/xlink" x="0px" y="0px"
	 width="285px" height="285px" viewBox="0 0 285 285" enable-background="new 0 0 285 285" xml:space="preserve">
<g opacity="0.8">
	<path fill="#CCFFFF" d="M285.237,244.75c0,22-18,40-40,40h-205c-22,0-40-18-40-40v-205c0-22,18-40,40-40h205c22,0,40,18,40,40
		V244.75z"/>
</g>
<g>
	<path fill="#FFFFFF" d="M141.094,72.598c-29.394,0-53.221,23.832-53.221,53.218c0,29.396,23.827,53.23,53.221,53.23
		c29.392,0,53.221-23.834,53.221-53.23C194.314,96.43,170.485,72.598,141.094,72.598z"/>
	<path fill="#50B748" d="M141.094,72.598c-29.394,0-53.221,23.832-53.221,53.218c0,29.396,23.827,53.23,53.221,53.23
		c29.392,0,53.221-23.834,53.221-53.23C194.314,96.43,170.485,72.598,141.094,72.598z M115.636,103.785l50.355,0.028
		c1.831,0.001,2.271,1.062,0.976,2.356l-23.783,23.783c-1.295,1.295-3.414,1.295-4.709,0l-23.814-23.814
		C113.365,104.843,113.804,103.784,115.636,103.785z M169.271,145.13c0,1.572-1.287,2.859-2.858,2.859h-51.097
		c-1.572,0-2.859-1.287-2.859-2.859v-32.774c0-1.572,0.91-1.949,2.021-0.837l23.19,23.19c1.112,1.111,1.942,1.602,3.158,1.602
		c1.217,0,2.047-0.49,3.159-1.602l23.264-23.264c1.112-1.112,2.021-0.735,2.021,0.837V145.13z"/>
</g>
<g>
	<text transform="matrix(1 0 0 1 94.8247 244.7207)" fill="#231F20" font-family="'Roboto-Light'" font-size="18">MESSAGES</text>
</g>
</svg>
