<?xml version="1.0" encoding="utf-8"?>
<!-- Generator: Adobe Illustrator 16.0.0, SVG Export Plug-In . SVG Version: 6.00 Build 0)  -->
<!DOCTYPE svg PUBLIC "-//W3C//DTD SVG 1.1//EN" "http://www.w3.org/Graphics/SVG/1.1/DTD/svg11.dtd">
<svg version="1.1" id="Layer_1" xmlns="http://www.w3.org/2000/svg" xmlns:xlink="http://www.w3.org/1999/xlink" x="0px" y="0px"
	 width="285px" height="285px" viewBox="0 0 285 285" enable-background="new 0 0 285 285" xml:space="preserve">
<g opacity="0.8">
	<path fill="#CCFFFF" d="M284.766,245c0,22-18,40-40,40h-205c-22,0-40-18-40-40V40c0-22,18-40,40-40h205c22,0,40,18,40,40V245z"/>
</g>
<g>
	<path fill="#FFFFFF" d="M88.405,126.647c0,28.614,23.196,51.811,51.805,51.811c28.611,0,51.811-23.196,51.811-51.811
		c0-28.613-23.199-51.805-51.811-51.805C111.602,74.843,88.405,98.034,88.405,126.647z"/>
	<g>
		<path fill="#38BFC3" d="M88.405,126.647c0,28.614,23.196,51.811,51.805,51.811c28.611,0,51.811-23.196,51.811-51.811
			c0-28.613-23.199-51.805-51.811-51.805C111.602,74.843,88.405,98.034,88.405,126.647z M159.851,124.793l-5.201,5.203
			l-22.724-22.719l5.199-5.203L159.851,124.793z M152.261,132.391l-5.208,5.199l-22.719-22.722l5.2-5.203L152.261,132.391z
			 M155.728,150.139l8.863-8.855l2.284,11.159L155.728,150.139z M141.589,147.221l20.085-20.084l2.241,10.905l-11.428,11.431
			L141.589,147.221z M116.748,122.457l5.199-5.2l22.722,22.717l-5.204,5.21L116.748,122.457z M115.414,100.968
			c5.229-5.226,13.487-5.555,19.095-0.978l-20.072,20.058C109.868,114.45,110.195,106.189,115.414,100.968z"/>
	</g>
</g>
<g>
	<text transform="matrix(1 0 0 1 103.4326 244.9707)" fill="#231F20" font-family="'Roboto-Light'" font-size="18">LESSONS</text>
</g>
</svg>
