<?xml version="1.0" encoding="utf-8"?>
<!-- Generator: Adobe Illustrator 16.0.0, SVG Export Plug-In . SVG Version: 6.00 Build 0)  -->
<!DOCTYPE svg PUBLIC "-//W3C//DTD SVG 1.1//EN" "http://www.w3.org/Graphics/SVG/1.1/DTD/svg11.dtd">
<svg version="1.1" id="Layer_1" xmlns="http://www.w3.org/2000/svg" xmlns:xlink="http://www.w3.org/1999/xlink" x="0px" y="0px"
	 width="285px" height="285px" viewBox="0 0 285 285" enable-background="new 0 0 285 285" xml:space="preserve">
<g opacity="0.8">
	<path fill="#CCFFFF" d="M284.752,244.75c0,22-18,40-40,40h-205c-22,0-40-18-40-40v-205c0-22,18-40,40-40h205c22,0,40,18,40,40
		V244.75z"/>
</g>
<g>
	<g>
		<path fill="#33C5F3" d="M193.542,125.75c0,28.722-23.275,52.007-51.995,52.007c-28.721,0-52.004-23.285-52.004-52.007
			c0-28.715,23.283-51.999,52.004-51.999C170.267,73.751,193.542,97.035,193.542,125.75z"/>
	</g>
	<path fill="#FFFFFF" d="M154.64,158.183h-20.507c-1.243,0-2.245,1.004-2.245,2.242c0,1.243,1.002,2.246,2.245,2.246h20.507
		c1.241,0,2.25-1.003,2.25-2.246C156.89,159.187,155.881,158.183,154.64,158.183z M157.44,97.874c0-0.995-0.812-1.798-1.808-1.798
		c-0.993,0-1.805,0.803-1.805,1.798c0,0.032,0.008,0.061,0.008,0.092c0,0.015-0.002,0.024-0.002,0.04v8.165
		c-0.029,1.255-0.537,2.204-1.872,2.204c-1.241,0-1.844-0.761-1.894-2.001V93.196c0-0.998-0.806-1.808-1.802-1.808
		c-0.999,0-1.808,0.81-1.808,1.808c0,0.039,0.009,0.071,0.009,0.103c0,0,0,0.017,0,0.023l-0.009,13.274
		c-0.151,1.256-0.744,1.778-1.957,1.778c-1.178,0-1.751-0.635-1.794-1.829V88.887c0-0.021,0.009-0.035,0.009-0.059
		c0-0.991-0.806-1.794-1.796-1.794c-0.871,0-1.594,0.622-1.758,1.447c-0.033,0.123-0.059,0.244-0.059,0.375l-0.002,17.599
		c-0.096,1.086-0.652,1.919-1.88,1.919c-1.154,0-1.774-0.655-1.875-1.742V93.098l-0.006-0.03c0.006-0.053,0.018-0.111,0.018-0.17
		c0-0.999-0.811-1.81-1.807-1.81c-0.994,0-1.808,0.811-1.808,1.81c0,0.022,0.011,0.042,0.011,0.068
		c-0.006,0.043-0.016,0.086-0.016,0.132c0,0.254-0.066,21.664-0.066,24.407c0,2.472-1.267,2.747-1.814,2.747
		c-0.608,0-1.102-0.322-1.195-0.386l-0.119-0.103l-4.135-4.137c-0.07-0.07-0.148-0.129-0.225-0.188
		c-0.465-0.531-1.146-0.868-1.907-0.868c-1.39,0-2.517,1.124-2.517,2.521c0,0.662,0.256,1.26,0.67,1.707
		c0.094,0.168,0.203,0.328,0.34,0.467l0.036,0.039c0,0,4.456,5.611,7.85,9.002c3.391,3.391,7.01,6.523,6.046,16.298
		c-0.279,2.787-0.835,6.926-1.121,8.228c-0.643,2.951,1.598,2.781,1.598,2.781s15.72,0,17.819,0c2.098,0,1.931-1.471,1.792-2.105
		c-0.518-2.338-2.138-11.197-2.313-12.695c-0.715-6.177,0.845-9.154,2.354-13.172c1.279-3.412,2.605-6.937,2.605-11.849V98.005
		c0-0.018-0.006-0.03-0.006-0.051C157.432,97.929,157.44,97.903,157.44,97.874z"/>
</g>
<g>
	<text transform="matrix(1 0 0 1 114.501 244.7207)" fill="#231F20" font-family="'Roboto-Light'" font-size="18">TASKS</text>
</g>
</svg>
