<?xml version="1.0" encoding="utf-8"?>
<!-- Generator: Adobe Illustrator 16.0.0, SVG Export Plug-In . SVG Version: 6.00 Build 0)  -->
<!DOCTYPE svg PUBLIC "-//W3C//DTD SVG 1.1//EN" "http://www.w3.org/Graphics/SVG/1.1/DTD/svg11.dtd">
<svg version="1.1" id="Layer_1" xmlns="http://www.w3.org/2000/svg" xmlns:xlink="http://www.w3.org/1999/xlink" x="0px" y="0px"
	 width="285px" height="285px" viewBox="0 0 285 285" enable-background="new 0 0 285 285" xml:space="preserve">
<g opacity="0.8">
	<path fill="#CCFFFF" d="M284.752,244.75c0,22-18,40-40,40h-205c-22,0-40-18-40-40v-205c0-22,18-40,40-40h205c22,0,40,18,40,40
		V244.75z"/>
</g>
<g>
	<g>
		<path fill="#33C5F3" d="M193.542,125.75c0,28.723-23.274,52.007-51.995,52.007s-52.004-23.284-52.004-52.007
			c0-28.715,23.283-51.999,52.004-51.999S193.542,97.035,193.542,125.75z"/>
	</g>
	<path fill="#FFFFFF" d="M154.641,158.184h-20.508c-1.243,0-2.245,1.004-2.245,2.241c0,1.243,1.002,2.246,2.245,2.246h20.508
		c1.24,0,2.25-1.003,2.25-2.246C156.891,159.188,155.881,158.184,154.641,158.184z M157.439,97.874c0-0.995-0.812-1.798-1.808-1.798
		c-0.993,0-1.805,0.803-1.805,1.798c0,0.032,0.008,0.061,0.008,0.092c0,0.015-0.002,0.024-0.002,0.04v8.165
		c-0.028,1.255-0.537,2.204-1.872,2.204c-1.24,0-1.844-0.761-1.895-2.001V93.196c0-0.998-0.805-1.808-1.801-1.808
		c-1,0-1.809,0.81-1.809,1.808c0,0.039,0.009,0.071,0.009,0.103c0,0,0,0.017,0,0.023l-0.009,13.274
		c-0.15,1.256-0.744,1.778-1.957,1.778c-1.178,0-1.751-0.635-1.794-1.829V88.887c0-0.021,0.009-0.035,0.009-0.059
		c0-0.991-0.806-1.794-1.796-1.794c-0.871,0-1.594,0.622-1.758,1.447c-0.033,0.123-0.059,0.244-0.059,0.375l-0.002,17.599
		c-0.096,1.086-0.652,1.919-1.88,1.919c-1.154,0-1.774-0.655-1.875-1.742V93.098l-0.006-0.03c0.006-0.053,0.018-0.111,0.018-0.17
		c0-0.999-0.811-1.81-1.807-1.81c-0.994,0-1.808,0.811-1.808,1.81c0,0.022,0.011,0.042,0.011,0.068
		c-0.006,0.043-0.016,0.086-0.016,0.132c0,0.254-0.066,21.664-0.066,24.407c0,2.472-1.267,2.747-1.814,2.747
		c-0.608,0-1.102-0.322-1.195-0.386l-0.119-0.103l-4.135-4.137c-0.07-0.07-0.148-0.129-0.225-0.188
		c-0.465-0.531-1.146-0.868-1.907-0.868c-1.39,0-2.517,1.124-2.517,2.521c0,0.662,0.256,1.26,0.67,1.707
		c0.094,0.168,0.203,0.328,0.34,0.467l0.036,0.039c0,0,4.456,5.611,7.85,9.002c3.391,3.391,7.01,6.523,6.046,16.297
		c-0.279,2.787-0.835,6.927-1.121,8.229c-0.643,2.951,1.598,2.781,1.598,2.781s15.72,0,17.819,0s1.931-1.471,1.792-2.105
		c-0.518-2.338-2.139-11.197-2.312-12.695c-0.715-6.177,0.844-9.154,2.354-13.172c1.279-3.412,2.605-6.937,2.605-11.849V98.005
		c0-0.018-0.006-0.03-0.006-0.051C157.432,97.929,157.439,97.903,157.439,97.874z"/>
</g>
<g>
	<g enable-background="new    ">
		<path fill="#231F20" d="M124.758,232.82h-4.403v11.9H119.3v-11.9h-4.403v-0.896h9.861V232.82z"/>
		<path fill="#231F20" d="M133.02,241.152h-5.862l-1.318,3.568h-1.09l4.86-12.797h0.993l4.825,12.797h-1.09L133.02,241.152z
			 M127.509,240.212h5.168l-2.549-6.926h-0.053L127.509,240.212z"/>
		<path fill="#231F20" d="M144.709,241.578c0-0.696-0.261-1.265-0.782-1.706c-0.521-0.442-1.43-0.833-2.725-1.172
			c-1.4-0.352-2.461-0.809-3.182-1.371s-1.081-1.321-1.081-2.276c0-0.979,0.403-1.775,1.208-2.391s1.841-0.923,3.107-0.923
			c1.318,0,2.382,0.366,3.19,1.099s1.201,1.626,1.178,2.681l-0.026,0.053h-0.967c0-0.855-0.304-1.559-0.909-2.109
			c-0.607-0.551-1.429-0.826-2.466-0.826c-1.025,0-1.827,0.229-2.404,0.686s-0.866,1.025-0.866,1.705c0,0.645,0.267,1.183,0.8,1.612
			c0.533,0.432,1.453,0.811,2.76,1.139c1.377,0.352,2.424,0.826,3.143,1.424c0.717,0.598,1.076,1.386,1.076,2.364
			c0,1.02-0.418,1.831-1.252,2.435c-0.836,0.604-1.9,0.905-3.195,0.905c-1.277,0-2.392-0.321-3.344-0.962
			c-0.952-0.643-1.414-1.578-1.384-2.809l0.018-0.053h0.967c0,0.993,0.372,1.729,1.116,2.208c0.744,0.479,1.62,0.719,2.628,0.719
			c1.014,0,1.832-0.223,2.457-0.667C144.396,242.897,144.709,242.31,144.709,241.578z"/>
		<path fill="#231F20" d="M151.011,238.709h-1.758v6.012h-1.046v-12.797h1.046v5.889h1.749l5.036-5.889h1.187l0.018,0.044
			l-5.291,6.253l5.669,6.456l-0.018,0.044h-1.248L151.011,238.709z"/>
		<path fill="#231F20" d="M167.024,241.578c0-0.696-0.261-1.265-0.782-1.706c-0.521-0.442-1.43-0.833-2.725-1.172
			c-1.4-0.352-2.461-0.809-3.182-1.371s-1.081-1.321-1.081-2.276c0-0.979,0.403-1.775,1.208-2.391
			c0.807-0.615,1.842-0.923,3.107-0.923c1.318,0,2.382,0.366,3.19,1.099s1.201,1.626,1.178,2.681l-0.026,0.053h-0.967
			c0-0.855-0.303-1.559-0.91-2.109c-0.605-0.551-1.428-0.826-2.465-0.826c-1.025,0-1.826,0.229-2.404,0.686
			c-0.576,0.457-0.865,1.025-0.865,1.705c0,0.645,0.267,1.183,0.8,1.612c0.533,0.432,1.453,0.811,2.76,1.139
			c1.377,0.352,2.425,0.826,3.142,1.424c0.719,0.598,1.077,1.386,1.077,2.364c0,1.02-0.417,1.831-1.253,2.435
			c-0.834,0.604-1.899,0.905-3.194,0.905c-1.277,0-2.392-0.321-3.345-0.962c-0.951-0.643-1.413-1.578-1.384-2.809l0.018-0.053h0.967
			c0,0.993,0.372,1.729,1.116,2.208c0.744,0.479,1.62,0.719,2.628,0.719c1.014,0,1.833-0.223,2.456-0.667
			C166.713,242.897,167.024,242.31,167.024,241.578z"/>
	</g>
</g>
</svg>
