<?xml version="1.0" encoding="utf-8"?>
<!-- Generator: Adobe Illustrator 16.0.0, SVG Export Plug-In . SVG Version: 6.00 Build 0)  -->
<!DOCTYPE svg PUBLIC "-//W3C//DTD SVG 1.1//EN" "http://www.w3.org/Graphics/SVG/1.1/DTD/svg11.dtd">
<svg version="1.1" id="Layer_1" xmlns="http://www.w3.org/2000/svg" xmlns:xlink="http://www.w3.org/1999/xlink" x="0px" y="0px"
	 width="113px" height="111px" viewBox="0 0 113 111" enable-background="new 0 0 113 111" xml:space="preserve">
<g>
	<path fill="#FFFFFF" d="M5.254,55.713c0,28.614,23.196,51.811,51.805,51.811c28.611,0,51.81-23.196,51.81-51.811
		c0-28.613-23.199-51.805-51.81-51.805C28.451,3.908,5.254,27.1,5.254,55.713z"/>
	<g>
		<path fill="#66CCCC" d="M5.254,55.713c0,28.614,23.196,51.811,51.805,51.811c28.611,0,51.81-23.196,51.81-51.811
			c0-28.613-23.199-51.805-51.81-51.805C28.451,3.908,5.254,27.1,5.254,55.713z M76.699,53.858l-5.201,5.203L48.775,36.343
			l5.199-5.203L76.699,53.858z M69.109,61.456l-5.207,5.199L41.183,43.934l5.2-5.203L69.109,61.456z M72.576,79.204l8.863-8.855
			l2.285,11.159L72.576,79.204z M58.438,76.286l20.086-20.084l2.24,10.905L69.336,78.538L58.438,76.286z M33.597,51.522l5.199-5.2
			l22.721,22.717l-5.204,5.21L33.597,51.522z M32.263,30.033c5.229-5.226,13.487-5.555,19.095-0.978L31.286,49.113
			C26.717,43.516,27.044,35.255,32.263,30.033z"/>
	</g>
</g>
</svg>
