<?xml version="1.0" encoding="utf-8"?>
<!-- Generator: Adobe Illustrator 16.0.0, SVG Export Plug-In . SVG Version: 6.00 Build 0)  -->
<!DOCTYPE svg PUBLIC "-//W3C//DTD SVG 1.1//EN" "http://www.w3.org/Graphics/SVG/1.1/DTD/svg11.dtd">
<svg version="1.1" id="Layer_1" xmlns="http://www.w3.org/2000/svg" xmlns:xlink="http://www.w3.org/1999/xlink" x="0px" y="0px"
	 width="138.104px" height="65.619px" viewBox="0 0 138.104 65.619" enable-background="new 0 0 138.104 65.619"
	 xml:space="preserve">
<g>
	<path fill="#676767" d="M129.326,45.8c0,7.585-6.148,13.734-13.732,13.734H20.641c-7.586,0-13.736-6.149-13.736-13.734V20.082
		c0-7.586,6.15-13.734,13.736-13.734h94.953c7.584,0,13.732,6.148,13.732,13.734V45.8z"/>
	<g>
		<g enable-background="new    ">
			<path fill="#FFFFFF" d="M30.345,35.975l0.021,0.062c-0.13,1.496-0.663,2.674-1.6,3.532c-0.937,0.857-2.191,1.286-3.763,1.286
				c-1.661,0-3.001-0.6-4.02-1.799c-1.019-1.2-1.528-2.754-1.528-4.66v-2.431c0-1.9,0.509-3.454,1.528-4.66
				c1.019-1.207,2.358-1.81,4.02-1.81c1.586,0,2.844,0.42,3.773,1.261s1.459,2.023,1.589,3.548l-0.021,0.062h-1.148
				c-0.164-1.237-0.59-2.185-1.276-2.841c-0.688-0.656-1.66-0.984-2.917-0.984c-1.306,0-2.353,0.506-3.143,1.517
				c-0.789,1.012-1.184,2.306-1.184,3.884v2.448c0,1.599,0.395,2.901,1.184,3.909c0.79,1.008,1.837,1.512,3.143,1.512
				c1.258,0,2.232-0.321,2.922-0.962s1.114-1.599,1.271-2.874H30.345z"/>
			<path fill="#FFFFFF" d="M44.424,34.396c0,1.928-0.528,3.486-1.584,4.676c-1.057,1.189-2.473,1.783-4.25,1.783
				c-1.75,0-3.146-0.594-4.189-1.783s-1.563-2.748-1.563-4.676v-2.431c0-1.921,0.52-3.479,1.559-4.676s2.434-1.794,4.184-1.794
				c1.777,0,3.196,0.598,4.255,1.794s1.589,2.755,1.589,4.676V34.396z M43.203,31.954c0-1.616-0.409-2.917-1.225-3.903
				c-0.817-0.985-1.95-1.479-3.399-1.479c-1.422,0-2.529,0.493-3.322,1.479c-0.793,0.986-1.189,2.287-1.189,3.903v2.454
				c0,1.629,0.398,2.938,1.194,3.923c0.796,0.986,1.906,1.479,3.328,1.479c1.456,0,2.589-0.492,3.399-1.475
				c0.811-0.982,1.215-2.291,1.215-3.928V31.954z"/>
			<path fill="#FFFFFF" d="M58.646,40.641h-1.22l-8.48-12.838l-0.062,0.01v12.828h-1.23v-14.93h1.23l8.48,12.817l0.062-0.011V25.711
				h1.22V40.641z"/>
			<path fill="#FFFFFF" d="M72.273,26.757h-5.137v13.884h-1.23V26.757h-5.137v-1.046h11.504V26.757z"/>
			<path fill="#FFFFFF" d="M76.2,40.641h-1.23v-14.93h1.23V40.641z"/>
			<path fill="#FFFFFF" d="M91.376,40.641h-1.221l-8.479-12.838l-0.062,0.01v12.828h-1.23v-14.93h1.23l8.48,12.817l0.061-0.011
				V25.711h1.221V40.641z"/>
			<path fill="#FFFFFF" d="M105.732,25.711v10.121c0,1.627-0.498,2.871-1.492,3.732s-2.291,1.291-3.891,1.291
				c-1.58,0-2.857-0.432-3.836-1.297c-0.977-0.864-1.466-2.107-1.466-3.727V25.711h1.23v10.113c0,1.271,0.376,2.253,1.128,2.946
				s1.732,1.04,2.943,1.04c1.23,0,2.231-0.346,3.004-1.035c0.772-0.69,1.158-1.674,1.158-2.951V25.711H105.732z"/>
			<path fill="#FFFFFF" d="M117.79,33.412h-7.188v6.183h8.233v1.046h-9.454v-14.93h9.402v1.046h-8.182v5.608h7.188V33.412z"/>
		</g>
	</g>
</g>
</svg>
